<mxfile host="Electron" agent="Mozilla/5.0 (Windows NT 10.0; Win64; x64) AppleWebKit/537.36 (KHTML, like Gecko) draw.io/25.0.2 Chrome/128.0.6613.186 Electron/32.2.5 Safari/537.36" version="25.0.2">
  <diagram name="Page-1" id="4uDW6pqK8jlAVulysUsF">
    <mxGraphModel dx="3200" dy="11817" grid="1" gridSize="10" guides="1" tooltips="1" connect="1" arrows="1" fold="1" page="1" pageScale="1" pageWidth="1400" pageHeight="850" math="0" shadow="0">
      <root>
        <mxCell id="0" />
        <mxCell id="1" parent="0" />
        <mxCell id="hdrvY5TLNorQvgxIyoRD-98" value="" style="group;rounded=0;labelBackgroundColor=none;" vertex="1" connectable="0" parent="1">
          <mxGeometry x="1455.5" y="-10153.84" width="652.37" height="753.84" as="geometry" />
        </mxCell>
        <mxCell id="i7Oei2AFkARMC62cGmq6-1" value="Dashboard" style="text;html=1;align=center;verticalAlign=middle;resizable=0;points=[];autosize=1;strokeColor=none;fillColor=none;labelBackgroundColor=none;rounded=0;" parent="hdrvY5TLNorQvgxIyoRD-98" vertex="1">
          <mxGeometry x="52.1896" width="80" height="30" as="geometry" />
        </mxCell>
        <mxCell id="hdrvY5TLNorQvgxIyoRD-92" style="edgeStyle=orthogonalEdgeStyle;rounded=0;orthogonalLoop=1;jettySize=auto;html=1;entryX=0.5;entryY=0;entryDx=0;entryDy=0;labelBackgroundColor=none;fontColor=default;" edge="1" parent="hdrvY5TLNorQvgxIyoRD-98" source="_YGeGJDo8BTtI1r9FFeI-8" target="_YGeGJDo8BTtI1r9FFeI-35">
          <mxGeometry relative="1" as="geometry" />
        </mxCell>
        <mxCell id="_YGeGJDo8BTtI1r9FFeI-8" value="&lt;font style=&quot;font-size: 15px;&quot;&gt;Add Deposit&lt;/font&gt;" style="shape=process;whiteSpace=wrap;html=1;backgroundOutline=1;labelBackgroundColor=none;rounded=0;" parent="hdrvY5TLNorQvgxIyoRD-98" vertex="1">
          <mxGeometry x="333.43355555555553" y="178.31215384615388" width="173.96533333333332" height="86.98153846153846" as="geometry" />
        </mxCell>
        <mxCell id="_YGeGJDo8BTtI1r9FFeI-36" value="" style="edgeStyle=orthogonalEdgeStyle;rounded=0;orthogonalLoop=1;jettySize=auto;html=1;labelBackgroundColor=none;fontColor=default;" parent="hdrvY5TLNorQvgxIyoRD-98" source="_YGeGJDo8BTtI1r9FFeI-9" target="_YGeGJDo8BTtI1r9FFeI-35" edge="1">
          <mxGeometry relative="1" as="geometry" />
        </mxCell>
        <mxCell id="_YGeGJDo8BTtI1r9FFeI-9" value="&lt;font style=&quot;font-size: 15px;&quot;&gt;Transfer Money&lt;/font&gt;" style="shape=process;whiteSpace=wrap;html=1;backgroundOutline=1;labelBackgroundColor=none;rounded=0;" parent="hdrvY5TLNorQvgxIyoRD-98" vertex="1">
          <mxGeometry x="333.43355555555553" y="333.4292307692308" width="173.96533333333332" height="86.98153846153846" as="geometry" />
        </mxCell>
        <mxCell id="hdrvY5TLNorQvgxIyoRD-93" style="edgeStyle=orthogonalEdgeStyle;rounded=0;orthogonalLoop=1;jettySize=auto;html=1;entryX=0.5;entryY=1;entryDx=0;entryDy=0;labelBackgroundColor=none;fontColor=default;" edge="1" parent="hdrvY5TLNorQvgxIyoRD-98" source="_YGeGJDo8BTtI1r9FFeI-10" target="_YGeGJDo8BTtI1r9FFeI-35">
          <mxGeometry relative="1" as="geometry" />
        </mxCell>
        <mxCell id="_YGeGJDo8BTtI1r9FFeI-10" value="&lt;font style=&quot;font-size: 15px;&quot;&gt;Withdraw&lt;/font&gt;" style="shape=process;whiteSpace=wrap;html=1;backgroundOutline=1;labelBackgroundColor=none;rounded=0;" parent="hdrvY5TLNorQvgxIyoRD-98" vertex="1">
          <mxGeometry x="333.43355555555553" y="497.9693076923077" width="173.96533333333332" height="86.98153846153846" as="geometry" />
        </mxCell>
        <mxCell id="_YGeGJDo8BTtI1r9FFeI-22" value="" style="edgeStyle=orthogonalEdgeStyle;rounded=0;orthogonalLoop=1;jettySize=auto;html=1;labelBackgroundColor=none;fontColor=default;" parent="hdrvY5TLNorQvgxIyoRD-98" source="_YGeGJDo8BTtI1r9FFeI-15" target="_YGeGJDo8BTtI1r9FFeI-20" edge="1">
          <mxGeometry relative="1" as="geometry" />
        </mxCell>
        <mxCell id="_YGeGJDo8BTtI1r9FFeI-15" value="&lt;font style=&quot;font-size: 15px;&quot;&gt;Start&lt;/font&gt;" style="ellipse;whiteSpace=wrap;html=1;labelBackgroundColor=none;rounded=0;" parent="hdrvY5TLNorQvgxIyoRD-98" vertex="1">
          <mxGeometry x="57.98844444444445" y="57.98769230769232" width="115.9768888888889" height="57.98769230769232" as="geometry" />
        </mxCell>
        <mxCell id="hdrvY5TLNorQvgxIyoRD-89" style="edgeStyle=orthogonalEdgeStyle;rounded=0;orthogonalLoop=1;jettySize=auto;html=1;labelBackgroundColor=none;fontColor=default;" edge="1" parent="hdrvY5TLNorQvgxIyoRD-98" source="_YGeGJDo8BTtI1r9FFeI-17">
          <mxGeometry relative="1" as="geometry">
            <mxPoint x="115.9768888888889" y="131.92200000000003" as="targetPoint" />
          </mxGeometry>
        </mxCell>
        <mxCell id="_YGeGJDo8BTtI1r9FFeI-17" value="&lt;font style=&quot;font-size: 15px;&quot;&gt;A&lt;/font&gt;" style="ellipse;whiteSpace=wrap;html=1;aspect=fixed;labelBackgroundColor=none;rounded=0;" parent="hdrvY5TLNorQvgxIyoRD-98" vertex="1">
          <mxGeometry x="202.95955555555557" y="102.92815384615386" width="57.98769230769232" height="57.98769230769232" as="geometry" />
        </mxCell>
        <mxCell id="_YGeGJDo8BTtI1r9FFeI-23" value="" style="edgeStyle=orthogonalEdgeStyle;rounded=0;orthogonalLoop=1;jettySize=auto;html=1;labelBackgroundColor=none;fontColor=default;" parent="hdrvY5TLNorQvgxIyoRD-98" source="_YGeGJDo8BTtI1r9FFeI-20" target="_YGeGJDo8BTtI1r9FFeI-8" edge="1">
          <mxGeometry relative="1" as="geometry" />
        </mxCell>
        <mxCell id="_YGeGJDo8BTtI1r9FFeI-24" value="Deposit Button" style="edgeLabel;html=1;align=center;verticalAlign=middle;resizable=0;points=[];labelBackgroundColor=none;rounded=0;" parent="_YGeGJDo8BTtI1r9FFeI-23" vertex="1" connectable="0">
          <mxGeometry x="-0.4124" y="1" relative="1" as="geometry">
            <mxPoint x="16" y="-9" as="offset" />
          </mxGeometry>
        </mxCell>
        <mxCell id="_YGeGJDo8BTtI1r9FFeI-26" value="" style="edgeStyle=orthogonalEdgeStyle;rounded=0;orthogonalLoop=1;jettySize=auto;html=1;labelBackgroundColor=none;fontColor=default;" parent="hdrvY5TLNorQvgxIyoRD-98" source="_YGeGJDo8BTtI1r9FFeI-20" target="_YGeGJDo8BTtI1r9FFeI-25" edge="1">
          <mxGeometry relative="1" as="geometry" />
        </mxCell>
        <mxCell id="_YGeGJDo8BTtI1r9FFeI-42" value="No" style="edgeLabel;html=1;align=center;verticalAlign=middle;resizable=0;points=[];labelBackgroundColor=none;rounded=0;" parent="_YGeGJDo8BTtI1r9FFeI-26" vertex="1" connectable="0">
          <mxGeometry x="0.4584" y="-2" relative="1" as="geometry">
            <mxPoint x="11" y="-3" as="offset" />
          </mxGeometry>
        </mxCell>
        <mxCell id="_YGeGJDo8BTtI1r9FFeI-20" value="Event Listener user action" style="rhombus;whiteSpace=wrap;html=1;labelBackgroundColor=none;rounded=0;" parent="hdrvY5TLNorQvgxIyoRD-98" vertex="1">
          <mxGeometry x="57.98119588888906" y="163.8152307692308" width="115.9768888888889" height="115.97538461538464" as="geometry" />
        </mxCell>
        <mxCell id="_YGeGJDo8BTtI1r9FFeI-27" style="edgeStyle=orthogonalEdgeStyle;rounded=0;orthogonalLoop=1;jettySize=auto;html=1;entryX=0;entryY=0.5;entryDx=0;entryDy=0;labelBackgroundColor=none;fontColor=default;" parent="hdrvY5TLNorQvgxIyoRD-98" source="_YGeGJDo8BTtI1r9FFeI-25" target="_YGeGJDo8BTtI1r9FFeI-9" edge="1">
          <mxGeometry relative="1" as="geometry" />
        </mxCell>
        <mxCell id="_YGeGJDo8BTtI1r9FFeI-28" value="Transfer Button" style="edgeLabel;html=1;align=center;verticalAlign=middle;resizable=0;points=[];labelBackgroundColor=none;rounded=0;" parent="_YGeGJDo8BTtI1r9FFeI-27" vertex="1" connectable="0">
          <mxGeometry x="-0.0167" y="2" relative="1" as="geometry">
            <mxPoint x="-3" y="-6" as="offset" />
          </mxGeometry>
        </mxCell>
        <mxCell id="_YGeGJDo8BTtI1r9FFeI-30" value="" style="edgeStyle=orthogonalEdgeStyle;rounded=0;orthogonalLoop=1;jettySize=auto;html=1;labelBackgroundColor=none;fontColor=default;" parent="hdrvY5TLNorQvgxIyoRD-98" source="_YGeGJDo8BTtI1r9FFeI-25" target="_YGeGJDo8BTtI1r9FFeI-29" edge="1">
          <mxGeometry relative="1" as="geometry" />
        </mxCell>
        <mxCell id="_YGeGJDo8BTtI1r9FFeI-44" value="No" style="edgeLabel;html=1;align=center;verticalAlign=middle;resizable=0;points=[];labelBackgroundColor=none;rounded=0;" parent="_YGeGJDo8BTtI1r9FFeI-30" vertex="1" connectable="0">
          <mxGeometry x="-0.2426" y="-1" relative="1" as="geometry">
            <mxPoint x="10" y="-5" as="offset" />
          </mxGeometry>
        </mxCell>
        <mxCell id="_YGeGJDo8BTtI1r9FFeI-25" value="Event Listener user action" style="rhombus;whiteSpace=wrap;html=1;labelBackgroundColor=none;rounded=0;" parent="hdrvY5TLNorQvgxIyoRD-98" vertex="1">
          <mxGeometry x="57.99569300000016" y="318.9323076923077" width="115.9768888888889" height="115.97538461538464" as="geometry" />
        </mxCell>
        <mxCell id="_YGeGJDo8BTtI1r9FFeI-31" style="edgeStyle=orthogonalEdgeStyle;rounded=0;orthogonalLoop=1;jettySize=auto;html=1;entryX=0;entryY=0.5;entryDx=0;entryDy=0;labelBackgroundColor=none;fontColor=default;" parent="hdrvY5TLNorQvgxIyoRD-98" source="_YGeGJDo8BTtI1r9FFeI-29" target="_YGeGJDo8BTtI1r9FFeI-10" edge="1">
          <mxGeometry relative="1" as="geometry" />
        </mxCell>
        <mxCell id="_YGeGJDo8BTtI1r9FFeI-32" value="Withdraw Button" style="edgeLabel;html=1;align=center;verticalAlign=middle;resizable=0;points=[];labelBackgroundColor=none;rounded=0;" parent="_YGeGJDo8BTtI1r9FFeI-31" vertex="1" connectable="0">
          <mxGeometry x="-0.1139" relative="1" as="geometry">
            <mxPoint y="-8" as="offset" />
          </mxGeometry>
        </mxCell>
        <mxCell id="_YGeGJDo8BTtI1r9FFeI-40" value="" style="edgeStyle=orthogonalEdgeStyle;rounded=0;orthogonalLoop=1;jettySize=auto;html=1;labelBackgroundColor=none;fontColor=default;" parent="hdrvY5TLNorQvgxIyoRD-98" source="_YGeGJDo8BTtI1r9FFeI-29" target="_YGeGJDo8BTtI1r9FFeI-39" edge="1">
          <mxGeometry relative="1" as="geometry" />
        </mxCell>
        <mxCell id="_YGeGJDo8BTtI1r9FFeI-45" value="No" style="edgeLabel;html=1;align=center;verticalAlign=middle;resizable=0;points=[];labelBackgroundColor=none;rounded=0;" parent="_YGeGJDo8BTtI1r9FFeI-40" vertex="1" connectable="0">
          <mxGeometry x="-0.8141" relative="1" as="geometry">
            <mxPoint x="10" y="3" as="offset" />
          </mxGeometry>
        </mxCell>
        <mxCell id="_YGeGJDo8BTtI1r9FFeI-29" value="Event Listener user action" style="rhombus;whiteSpace=wrap;html=1;labelBackgroundColor=none;rounded=0;" parent="hdrvY5TLNorQvgxIyoRD-98" vertex="1">
          <mxGeometry x="57.99569300000016" y="483.47238461538467" width="115.9768888888889" height="115.97538461538464" as="geometry" />
        </mxCell>
        <mxCell id="_YGeGJDo8BTtI1r9FFeI-35" value="&lt;font style=&quot;font-size: 15px;&quot;&gt;A&lt;/font&gt;" style="ellipse;whiteSpace=wrap;html=1;aspect=fixed;labelBackgroundColor=none;rounded=0;" parent="hdrvY5TLNorQvgxIyoRD-98" vertex="1">
          <mxGeometry x="565.3873333333333" y="342.12738461538464" width="68.13553846153847" height="68.13553846153847" as="geometry" />
        </mxCell>
        <mxCell id="_YGeGJDo8BTtI1r9FFeI-41" style="edgeStyle=orthogonalEdgeStyle;rounded=0;orthogonalLoop=1;jettySize=auto;html=1;entryX=0;entryY=0.5;entryDx=0;entryDy=0;labelBackgroundColor=none;fontColor=default;" parent="hdrvY5TLNorQvgxIyoRD-98" source="_YGeGJDo8BTtI1r9FFeI-39" target="_YGeGJDo8BTtI1r9FFeI-47" edge="1">
          <mxGeometry relative="1" as="geometry">
            <mxPoint x="333.43355555555553" y="695.8523076923077" as="targetPoint" />
          </mxGeometry>
        </mxCell>
        <mxCell id="_YGeGJDo8BTtI1r9FFeI-46" value="Log Out" style="edgeLabel;html=1;align=center;verticalAlign=middle;resizable=0;points=[];labelBackgroundColor=none;rounded=0;" parent="_YGeGJDo8BTtI1r9FFeI-41" vertex="1" connectable="0">
          <mxGeometry x="-0.1273" y="-2" relative="1" as="geometry">
            <mxPoint y="-11" as="offset" />
          </mxGeometry>
        </mxCell>
        <mxCell id="hdrvY5TLNorQvgxIyoRD-91" style="edgeStyle=elbowEdgeStyle;rounded=0;orthogonalLoop=1;jettySize=auto;html=1;labelBackgroundColor=none;fontColor=default;" edge="1" parent="hdrvY5TLNorQvgxIyoRD-98" source="_YGeGJDo8BTtI1r9FFeI-39">
          <mxGeometry relative="1" as="geometry">
            <mxPoint x="115.9768888888889" y="130.4723076923077" as="targetPoint" />
            <Array as="points">
              <mxPoint y="420.4107692307693" />
            </Array>
          </mxGeometry>
        </mxCell>
        <mxCell id="_YGeGJDo8BTtI1r9FFeI-39" value="Event Listener user action" style="rhombus;whiteSpace=wrap;html=1;labelBackgroundColor=none;rounded=0;" parent="hdrvY5TLNorQvgxIyoRD-98" vertex="1">
          <mxGeometry x="57.99569300000016" y="637.8646153846154" width="115.9768888888889" height="115.97538461538464" as="geometry" />
        </mxCell>
        <mxCell id="hdrvY5TLNorQvgxIyoRD-95" value="" style="edgeStyle=orthogonalEdgeStyle;rounded=0;orthogonalLoop=1;jettySize=auto;html=1;labelBackgroundColor=none;fontColor=default;" edge="1" parent="hdrvY5TLNorQvgxIyoRD-98" source="_YGeGJDo8BTtI1r9FFeI-47" target="hdrvY5TLNorQvgxIyoRD-94">
          <mxGeometry relative="1" as="geometry" />
        </mxCell>
        <mxCell id="_YGeGJDo8BTtI1r9FFeI-47" value="&lt;font style=&quot;font-size: 15px;&quot;&gt;Main&lt;/font&gt;" style="shape=process;whiteSpace=wrap;html=1;backgroundOutline=1;labelBackgroundColor=none;rounded=0;" parent="hdrvY5TLNorQvgxIyoRD-98" vertex="1">
          <mxGeometry x="333.43355555555553" y="652.3615384615385" width="173.96533333333332" height="86.98153846153846" as="geometry" />
        </mxCell>
        <mxCell id="hdrvY5TLNorQvgxIyoRD-94" value="&lt;font style=&quot;font-size: 15px;&quot;&gt;END&lt;/font&gt;" style="ellipse;whiteSpace=wrap;html=1;labelBackgroundColor=none;rounded=0;" vertex="1" parent="hdrvY5TLNorQvgxIyoRD-98">
          <mxGeometry x="565.3873333333333" y="666.8584615384616" width="86.98266666666666" height="57.98769230769232" as="geometry" />
        </mxCell>
        <mxCell id="hdrvY5TLNorQvgxIyoRD-99" value="" style="group;rounded=0;labelBackgroundColor=none;" vertex="1" connectable="0" parent="1">
          <mxGeometry x="34.5" y="-10110" width="355.01" height="600" as="geometry" />
        </mxCell>
        <mxCell id="JkztsXf71j5ndPKpqwyT-157" value="" style="edgeStyle=orthogonalEdgeStyle;rounded=0;orthogonalLoop=1;jettySize=auto;html=1;labelBackgroundColor=none;fontColor=default;" parent="hdrvY5TLNorQvgxIyoRD-99" source="JkztsXf71j5ndPKpqwyT-139" target="JkztsXf71j5ndPKpqwyT-156" edge="1">
          <mxGeometry relative="1" as="geometry" />
        </mxCell>
        <mxCell id="JkztsXf71j5ndPKpqwyT-139" value="&lt;span style=&quot;font-size: 15px;&quot;&gt;Start&lt;/span&gt;" style="ellipse;whiteSpace=wrap;html=1;labelBackgroundColor=none;rounded=0;" parent="hdrvY5TLNorQvgxIyoRD-99" vertex="1">
          <mxGeometry x="47.0504969982923" y="37.5" width="90.91346032640271" height="62.5" as="geometry" />
        </mxCell>
        <mxCell id="JkztsXf71j5ndPKpqwyT-203" value="" style="edgeStyle=orthogonalEdgeStyle;rounded=0;orthogonalLoop=1;jettySize=auto;html=1;labelBackgroundColor=none;fontColor=default;" parent="hdrvY5TLNorQvgxIyoRD-99" source="JkztsXf71j5ndPKpqwyT-142" target="JkztsXf71j5ndPKpqwyT-202" edge="1">
          <mxGeometry relative="1" as="geometry" />
        </mxCell>
        <mxCell id="JkztsXf71j5ndPKpqwyT-142" value="Sign In" style="shape=process;whiteSpace=wrap;html=1;backgroundOutline=1;labelBackgroundColor=none;rounded=0;" parent="hdrvY5TLNorQvgxIyoRD-99" vertex="1">
          <mxGeometry x="17.50643492192042" y="425" width="150.00158447914652" height="75" as="geometry" />
        </mxCell>
        <mxCell id="JkztsXf71j5ndPKpqwyT-176" style="edgeStyle=elbowEdgeStyle;rounded=0;orthogonalLoop=1;jettySize=auto;html=1;labelBackgroundColor=none;fontColor=default;" parent="hdrvY5TLNorQvgxIyoRD-99" source="JkztsXf71j5ndPKpqwyT-153" edge="1">
          <mxGeometry relative="1" as="geometry">
            <mxPoint x="92.5009770954737" y="112.5" as="targetPoint" />
            <Array as="points">
              <mxPoint x="280.0029576944068" y="225" />
            </Array>
          </mxGeometry>
        </mxCell>
        <mxCell id="JkztsXf71j5ndPKpqwyT-153" value="Create Account" style="shape=process;whiteSpace=wrap;html=1;backgroundOutline=1;labelBackgroundColor=none;rounded=0;" parent="hdrvY5TLNorQvgxIyoRD-99" vertex="1">
          <mxGeometry x="205.0084155208535" y="287.5" width="150.00158447914652" height="75" as="geometry" />
        </mxCell>
        <mxCell id="JkztsXf71j5ndPKpqwyT-160" value="" style="edgeStyle=orthogonalEdgeStyle;rounded=0;orthogonalLoop=1;jettySize=auto;html=1;labelBackgroundColor=none;fontColor=default;" parent="hdrvY5TLNorQvgxIyoRD-99" source="JkztsXf71j5ndPKpqwyT-156" target="JkztsXf71j5ndPKpqwyT-159" edge="1">
          <mxGeometry relative="1" as="geometry" />
        </mxCell>
        <mxCell id="JkztsXf71j5ndPKpqwyT-156" value="Display Sign In GUI" style="whiteSpace=wrap;html=1;labelBackgroundColor=none;rounded=0;" parent="hdrvY5TLNorQvgxIyoRD-99" vertex="1">
          <mxGeometry x="17.512684987940368" y="150" width="150.00158447914652" height="75" as="geometry" />
        </mxCell>
        <mxCell id="JkztsXf71j5ndPKpqwyT-161" value="" style="edgeStyle=orthogonalEdgeStyle;rounded=0;orthogonalLoop=1;jettySize=auto;html=1;labelBackgroundColor=none;fontColor=default;" parent="hdrvY5TLNorQvgxIyoRD-99" source="JkztsXf71j5ndPKpqwyT-159" target="JkztsXf71j5ndPKpqwyT-142" edge="1">
          <mxGeometry relative="1" as="geometry" />
        </mxCell>
        <mxCell id="JkztsXf71j5ndPKpqwyT-174" value="Sign In&amp;nbsp;" style="edgeLabel;html=1;align=center;verticalAlign=middle;resizable=0;points=[];labelBackgroundColor=none;rounded=0;" parent="JkztsXf71j5ndPKpqwyT-161" vertex="1" connectable="0">
          <mxGeometry x="-0.1921" y="1" relative="1" as="geometry">
            <mxPoint x="19" y="4" as="offset" />
          </mxGeometry>
        </mxCell>
        <mxCell id="JkztsXf71j5ndPKpqwyT-164" value="" style="edgeStyle=orthogonalEdgeStyle;rounded=0;orthogonalLoop=1;jettySize=auto;html=1;labelBackgroundColor=none;fontColor=default;" parent="hdrvY5TLNorQvgxIyoRD-99" source="JkztsXf71j5ndPKpqwyT-159" target="JkztsXf71j5ndPKpqwyT-153" edge="1">
          <mxGeometry relative="1" as="geometry" />
        </mxCell>
        <mxCell id="JkztsXf71j5ndPKpqwyT-173" value="Sign Up" style="edgeLabel;html=1;align=center;verticalAlign=middle;resizable=0;points=[];labelBackgroundColor=none;rounded=0;" parent="JkztsXf71j5ndPKpqwyT-164" vertex="1" connectable="0">
          <mxGeometry x="-0.1715" y="1" relative="1" as="geometry">
            <mxPoint x="1" y="9" as="offset" />
          </mxGeometry>
        </mxCell>
        <mxCell id="JkztsXf71j5ndPKpqwyT-159" value="Event Listener user action" style="rhombus;whiteSpace=wrap;html=1;labelBackgroundColor=none;rounded=0;" parent="hdrvY5TLNorQvgxIyoRD-99" vertex="1">
          <mxGeometry x="42.506699001778166" y="275" width="100.001056319431" height="100" as="geometry" />
        </mxCell>
        <mxCell id="JkztsXf71j5ndPKpqwyT-167" value="Main Flowchart" style="text;html=1;align=center;verticalAlign=middle;resizable=0;points=[];autosize=1;strokeColor=none;fillColor=none;labelBackgroundColor=none;rounded=0;" parent="hdrvY5TLNorQvgxIyoRD-99" vertex="1">
          <mxGeometry x="30.0003168958293" width="100" height="30" as="geometry" />
        </mxCell>
        <mxCell id="JkztsXf71j5ndPKpqwyT-202" value="End" style="ellipse;whiteSpace=wrap;html=1;labelBackgroundColor=none;rounded=0;" parent="hdrvY5TLNorQvgxIyoRD-99" vertex="1">
          <mxGeometry x="55.02558123976692" y="550" width="74.9757919754934" height="50" as="geometry" />
        </mxCell>
        <mxCell id="JkztsXf71j5ndPKpqwyT-242" style="edgeStyle=orthogonalEdgeStyle;rounded=0;orthogonalLoop=1;jettySize=auto;html=1;labelBackgroundColor=none;fontColor=default;" parent="hdrvY5TLNorQvgxIyoRD-99" source="JkztsXf71j5ndPKpqwyT-241" edge="1">
          <mxGeometry relative="1" as="geometry">
            <mxPoint x="92.5009770954737" y="250" as="targetPoint" />
          </mxGeometry>
        </mxCell>
        <mxCell id="JkztsXf71j5ndPKpqwyT-241" value="B" style="ellipse;whiteSpace=wrap;html=1;labelBackgroundColor=none;rounded=0;" parent="hdrvY5TLNorQvgxIyoRD-99" vertex="1">
          <mxGeometry y="235" width="30.0003168958293" height="30" as="geometry" />
        </mxCell>
        <mxCell id="hdrvY5TLNorQvgxIyoRD-101" value="" style="group;rounded=0;labelBackgroundColor=none;" vertex="1" connectable="0" parent="1">
          <mxGeometry x="450" y="-10130" width="376.58" height="722" as="geometry" />
        </mxCell>
        <mxCell id="JkztsXf71j5ndPKpqwyT-1" style="edgeStyle=orthogonalEdgeStyle;rounded=0;orthogonalLoop=1;jettySize=auto;html=1;exitX=0.5;exitY=1;exitDx=0;exitDy=0;entryX=0.5;entryY=0;entryDx=0;entryDy=0;labelBackgroundColor=none;fontColor=default;" parent="hdrvY5TLNorQvgxIyoRD-101" source="JkztsXf71j5ndPKpqwyT-171" target="JkztsXf71j5ndPKpqwyT-6" edge="1">
          <mxGeometry relative="1" as="geometry">
            <mxPoint x="101.94968916207509" y="389.7840531561461" as="sourcePoint" />
            <mxPoint x="101.94369247428288" y="425.76411960132884" as="targetPoint" />
          </mxGeometry>
        </mxCell>
        <mxCell id="JkztsXf71j5ndPKpqwyT-186" value="Register" style="edgeLabel;html=1;align=center;verticalAlign=middle;resizable=0;points=[];labelBackgroundColor=none;rounded=0;" parent="JkztsXf71j5ndPKpqwyT-1" vertex="1" connectable="0">
          <mxGeometry x="-0.1754" relative="1" as="geometry">
            <mxPoint x="23" y="-2" as="offset" />
          </mxGeometry>
        </mxCell>
        <mxCell id="JkztsXf71j5ndPKpqwyT-170" value="" style="edgeStyle=orthogonalEdgeStyle;rounded=0;orthogonalLoop=1;jettySize=auto;html=1;labelBackgroundColor=none;fontColor=default;" parent="hdrvY5TLNorQvgxIyoRD-101" source="JkztsXf71j5ndPKpqwyT-2" target="JkztsXf71j5ndPKpqwyT-169" edge="1">
          <mxGeometry relative="1" as="geometry" />
        </mxCell>
        <mxCell id="JkztsXf71j5ndPKpqwyT-2" value="&lt;span style=&quot;font-size: 15px;&quot;&gt;Start&lt;/span&gt;" style="ellipse;whiteSpace=wrap;html=1;labelBackgroundColor=none;rounded=0;" parent="hdrvY5TLNorQvgxIyoRD-101" vertex="1">
          <mxGeometry x="58.335778846460066" y="35.98006644518273" width="87.2278206312303" height="59.96677740863787" as="geometry" />
        </mxCell>
        <mxCell id="JkztsXf71j5ndPKpqwyT-5" style="edgeStyle=orthogonalEdgeStyle;rounded=0;orthogonalLoop=1;jettySize=auto;html=1;exitX=0.5;exitY=1;exitDx=0;exitDy=0;labelBackgroundColor=none;fontColor=default;" parent="hdrvY5TLNorQvgxIyoRD-101" source="JkztsXf71j5ndPKpqwyT-6" target="JkztsXf71j5ndPKpqwyT-8" edge="1">
          <mxGeometry relative="1" as="geometry" />
        </mxCell>
        <mxCell id="JkztsXf71j5ndPKpqwyT-6" value="&lt;font style=&quot;font-size: 15px;&quot;&gt;GET firstName&lt;/font&gt;" style="shape=parallelogram;perimeter=parallelogramPerimeter;whiteSpace=wrap;html=1;fixedSize=1;labelBackgroundColor=none;rounded=0;" parent="hdrvY5TLNorQvgxIyoRD-101" vertex="1">
          <mxGeometry x="20.98840727411701" y="371.79401993355486" width="161.9105704003312" height="53.97009966777408" as="geometry" />
        </mxCell>
        <mxCell id="JkztsXf71j5ndPKpqwyT-7" style="edgeStyle=orthogonalEdgeStyle;rounded=0;orthogonalLoop=1;jettySize=auto;html=1;exitX=0.5;exitY=1;exitDx=0;exitDy=0;entryX=0.5;entryY=0;entryDx=0;entryDy=0;labelBackgroundColor=none;fontColor=default;" parent="hdrvY5TLNorQvgxIyoRD-101" source="JkztsXf71j5ndPKpqwyT-8" target="JkztsXf71j5ndPKpqwyT-10" edge="1">
          <mxGeometry relative="1" as="geometry" />
        </mxCell>
        <mxCell id="JkztsXf71j5ndPKpqwyT-8" value="&lt;font style=&quot;font-size: 15px;&quot;&gt;GET lastName&lt;/font&gt;" style="shape=parallelogram;perimeter=parallelogramPerimeter;whiteSpace=wrap;html=1;fixedSize=1;labelBackgroundColor=none;rounded=0;" parent="hdrvY5TLNorQvgxIyoRD-101" vertex="1">
          <mxGeometry x="11.99337558520972" y="455.7475083056478" width="179.9006337781458" height="53.97009966777408" as="geometry" />
        </mxCell>
        <mxCell id="JkztsXf71j5ndPKpqwyT-9" style="edgeStyle=orthogonalEdgeStyle;rounded=0;orthogonalLoop=1;jettySize=auto;html=1;exitX=0.5;exitY=1;exitDx=0;exitDy=0;entryX=0.5;entryY=0;entryDx=0;entryDy=0;labelBackgroundColor=none;fontColor=default;" parent="hdrvY5TLNorQvgxIyoRD-101" source="JkztsXf71j5ndPKpqwyT-10" target="JkztsXf71j5ndPKpqwyT-12" edge="1">
          <mxGeometry relative="1" as="geometry" />
        </mxCell>
        <mxCell id="JkztsXf71j5ndPKpqwyT-10" value="&lt;font style=&quot;font-size: 15px;&quot;&gt;GET pin&lt;/font&gt;" style="shape=parallelogram;perimeter=parallelogramPerimeter;whiteSpace=wrap;html=1;fixedSize=1;labelBackgroundColor=none;rounded=0;" parent="hdrvY5TLNorQvgxIyoRD-101" vertex="1">
          <mxGeometry x="14.991719481512149" y="527.7076411960132" width="179.9006337781458" height="53.97009966777408" as="geometry" />
        </mxCell>
        <mxCell id="JkztsXf71j5ndPKpqwyT-209" value="" style="edgeStyle=orthogonalEdgeStyle;rounded=0;orthogonalLoop=1;jettySize=auto;html=1;labelBackgroundColor=none;fontColor=default;" parent="hdrvY5TLNorQvgxIyoRD-101" source="JkztsXf71j5ndPKpqwyT-12" target="JkztsXf71j5ndPKpqwyT-208" edge="1">
          <mxGeometry relative="1" as="geometry" />
        </mxCell>
        <mxCell id="JkztsXf71j5ndPKpqwyT-12" value="&lt;font style=&quot;font-size: 15px;&quot;&gt;GET initialDeposit&lt;/font&gt;" style="shape=parallelogram;perimeter=parallelogramPerimeter;whiteSpace=wrap;html=1;fixedSize=1;labelBackgroundColor=none;rounded=0;" parent="hdrvY5TLNorQvgxIyoRD-101" vertex="1">
          <mxGeometry x="8.99503168890729" y="611.6611295681064" width="191.8940093633555" height="47.973421926910305" as="geometry" />
        </mxCell>
        <mxCell id="JkztsXf71j5ndPKpqwyT-168" value="Create Account Flowchart" style="text;html=1;align=center;verticalAlign=middle;resizable=0;points=[];autosize=1;strokeColor=none;fillColor=none;labelBackgroundColor=none;rounded=0;" parent="hdrvY5TLNorQvgxIyoRD-101" vertex="1">
          <mxGeometry x="20" width="160" height="30" as="geometry" />
        </mxCell>
        <mxCell id="JkztsXf71j5ndPKpqwyT-172" value="" style="edgeStyle=orthogonalEdgeStyle;rounded=0;orthogonalLoop=1;jettySize=auto;html=1;labelBackgroundColor=none;fontColor=default;" parent="hdrvY5TLNorQvgxIyoRD-101" source="JkztsXf71j5ndPKpqwyT-169" target="JkztsXf71j5ndPKpqwyT-171" edge="1">
          <mxGeometry relative="1" as="geometry" />
        </mxCell>
        <mxCell id="JkztsXf71j5ndPKpqwyT-169" value="Display Sign Up GUI" style="whiteSpace=wrap;html=1;labelBackgroundColor=none;rounded=0;" parent="hdrvY5TLNorQvgxIyoRD-101" vertex="1">
          <mxGeometry x="29.989435650816898" y="137.9235880398671" width="143.92050702251663" height="71.96013289036546" as="geometry" />
        </mxCell>
        <mxCell id="JkztsXf71j5ndPKpqwyT-215" value="" style="edgeStyle=orthogonalEdgeStyle;rounded=0;orthogonalLoop=1;jettySize=auto;html=1;labelBackgroundColor=none;fontColor=default;" parent="hdrvY5TLNorQvgxIyoRD-101" source="JkztsXf71j5ndPKpqwyT-171" target="JkztsXf71j5ndPKpqwyT-214" edge="1">
          <mxGeometry relative="1" as="geometry" />
        </mxCell>
        <mxCell id="JkztsXf71j5ndPKpqwyT-216" value="Sign In" style="edgeLabel;html=1;align=center;verticalAlign=middle;resizable=0;points=[];labelBackgroundColor=none;rounded=0;" parent="JkztsXf71j5ndPKpqwyT-215" vertex="1" connectable="0">
          <mxGeometry x="-0.4465" y="1" relative="1" as="geometry">
            <mxPoint x="7" y="-7" as="offset" />
          </mxGeometry>
        </mxCell>
        <mxCell id="JkztsXf71j5ndPKpqwyT-171" value="Event Listener&lt;div&gt;user action&lt;/div&gt;" style="rhombus;whiteSpace=wrap;html=1;labelBackgroundColor=none;rounded=0;" parent="hdrvY5TLNorQvgxIyoRD-101" vertex="1">
          <mxGeometry x="53.97618682123633" y="239.86710963455147" width="95.94700468167775" height="95.94684385382061" as="geometry" />
        </mxCell>
        <mxCell id="JkztsXf71j5ndPKpqwyT-205" value="" style="edgeStyle=orthogonalEdgeStyle;rounded=0;orthogonalLoop=1;jettySize=auto;html=1;labelBackgroundColor=none;fontColor=default;" parent="hdrvY5TLNorQvgxIyoRD-101" source="JkztsXf71j5ndPKpqwyT-195" target="JkztsXf71j5ndPKpqwyT-204" edge="1">
          <mxGeometry relative="1" as="geometry" />
        </mxCell>
        <mxCell id="JkztsXf71j5ndPKpqwyT-195" value="Main" style="shape=process;whiteSpace=wrap;html=1;backgroundOutline=1;labelBackgroundColor=none;rounded=0;" parent="hdrvY5TLNorQvgxIyoRD-101" vertex="1">
          <mxGeometry x="232.65949297748338" y="362.19933554817277" width="143.92050702251663" height="71.96013289036546" as="geometry" />
        </mxCell>
        <mxCell id="JkztsXf71j5ndPKpqwyT-204" value="End" style="ellipse;whiteSpace=wrap;html=1;labelBackgroundColor=none;rounded=0;" parent="hdrvY5TLNorQvgxIyoRD-101" vertex="1">
          <mxGeometry x="267.7401165642218" y="482.13289036544853" width="73.75925984903978" height="35.98006644518273" as="geometry" />
        </mxCell>
        <mxCell id="JkztsXf71j5ndPKpqwyT-208" value="A" style="ellipse;whiteSpace=wrap;html=1;labelBackgroundColor=none;rounded=0;" parent="hdrvY5TLNorQvgxIyoRD-101" vertex="1">
          <mxGeometry x="90.54998566833338" y="693.2159468438538" width="28.78410140450333" height="28.78405315614618" as="geometry" />
        </mxCell>
        <mxCell id="JkztsXf71j5ndPKpqwyT-218" value="" style="edgeStyle=orthogonalEdgeStyle;rounded=0;orthogonalLoop=1;jettySize=auto;html=1;labelBackgroundColor=none;fontColor=default;" parent="hdrvY5TLNorQvgxIyoRD-101" source="JkztsXf71j5ndPKpqwyT-210" edge="1">
          <mxGeometry relative="1" as="geometry">
            <mxPoint x="217.67976687155644" y="287.84053156146183" as="targetPoint" />
          </mxGeometry>
        </mxCell>
        <mxCell id="JkztsXf71j5ndPKpqwyT-210" value="A" style="ellipse;whiteSpace=wrap;html=1;labelBackgroundColor=none;rounded=0;" parent="hdrvY5TLNorQvgxIyoRD-101" vertex="1">
          <mxGeometry x="203.88738494856526" y="187.09634551495017" width="28.78410140450333" height="28.78405315614618" as="geometry" />
        </mxCell>
        <mxCell id="JkztsXf71j5ndPKpqwyT-217" value="" style="edgeStyle=orthogonalEdgeStyle;rounded=0;orthogonalLoop=1;jettySize=auto;html=1;labelBackgroundColor=none;fontColor=default;" parent="hdrvY5TLNorQvgxIyoRD-101" source="JkztsXf71j5ndPKpqwyT-214" target="JkztsXf71j5ndPKpqwyT-195" edge="1">
          <mxGeometry relative="1" as="geometry" />
        </mxCell>
        <mxCell id="JkztsXf71j5ndPKpqwyT-214" value="Dispose Create Account" style="whiteSpace=wrap;html=1;labelBackgroundColor=none;rounded=0;" parent="hdrvY5TLNorQvgxIyoRD-101" vertex="1">
          <mxGeometry x="238.66817414567345" y="254.25913621262458" width="131.9151380617217" height="67.16279069767441" as="geometry" />
        </mxCell>
        <mxCell id="hdrvY5TLNorQvgxIyoRD-103" value="" style="group;rounded=0;labelBackgroundColor=none;" vertex="1" connectable="0" parent="1">
          <mxGeometry x="900" y="-10102.42" width="470" height="711.85" as="geometry" />
        </mxCell>
        <mxCell id="JkztsXf71j5ndPKpqwyT-15" style="edgeStyle=orthogonalEdgeStyle;rounded=0;orthogonalLoop=1;jettySize=auto;html=1;exitX=0.5;exitY=1;exitDx=0;exitDy=0;entryX=0.5;entryY=0;entryDx=0;entryDy=0;labelBackgroundColor=none;fontColor=default;" parent="hdrvY5TLNorQvgxIyoRD-103" source="JkztsXf71j5ndPKpqwyT-219" target="JkztsXf71j5ndPKpqwyT-18" edge="1">
          <mxGeometry relative="1" as="geometry">
            <mxPoint x="115.00575000000012" y="94.87500000000001" as="sourcePoint" />
          </mxGeometry>
        </mxCell>
        <mxCell id="JkztsXf71j5ndPKpqwyT-17" style="edgeStyle=orthogonalEdgeStyle;rounded=0;orthogonalLoop=1;jettySize=auto;html=1;exitX=0.5;exitY=1;exitDx=0;exitDy=0;entryX=0.5;entryY=0;entryDx=0;entryDy=0;labelBackgroundColor=none;fontColor=default;" parent="hdrvY5TLNorQvgxIyoRD-103" source="JkztsXf71j5ndPKpqwyT-18" target="JkztsXf71j5ndPKpqwyT-20" edge="1">
          <mxGeometry relative="1" as="geometry" />
        </mxCell>
        <mxCell id="JkztsXf71j5ndPKpqwyT-18" value="GET accountName" style="shape=parallelogram;perimeter=parallelogramPerimeter;whiteSpace=wrap;html=1;fixedSize=1;fontSize=15;labelBackgroundColor=none;rounded=0;" parent="hdrvY5TLNorQvgxIyoRD-103" vertex="1">
          <mxGeometry x="23" y="121.90000000000002" width="184" height="51.75000000000001" as="geometry" />
        </mxCell>
        <mxCell id="JkztsXf71j5ndPKpqwyT-19" style="edgeStyle=orthogonalEdgeStyle;rounded=0;orthogonalLoop=1;jettySize=auto;html=1;exitX=0.5;exitY=1;exitDx=0;exitDy=0;entryX=0.5;entryY=0;entryDx=0;entryDy=0;labelBackgroundColor=none;fontColor=default;" parent="hdrvY5TLNorQvgxIyoRD-103" source="JkztsXf71j5ndPKpqwyT-20" target="JkztsXf71j5ndPKpqwyT-23" edge="1">
          <mxGeometry relative="1" as="geometry">
            <mxPoint x="114.99999999999999" y="359.37500000000006" as="targetPoint" />
          </mxGeometry>
        </mxCell>
        <mxCell id="JkztsXf71j5ndPKpqwyT-20" value="GET pin" style="shape=parallelogram;perimeter=parallelogramPerimeter;whiteSpace=wrap;html=1;fixedSize=1;fontSize=15;labelBackgroundColor=none;rounded=0;" parent="hdrvY5TLNorQvgxIyoRD-103" vertex="1">
          <mxGeometry x="17.25" y="209.3" width="195.49999999999997" height="35.650000000000006" as="geometry" />
        </mxCell>
        <mxCell id="JkztsXf71j5ndPKpqwyT-21" style="edgeStyle=orthogonalEdgeStyle;rounded=0;orthogonalLoop=1;jettySize=auto;html=1;exitX=1;exitY=0.5;exitDx=0;exitDy=0;entryX=0;entryY=0.5;entryDx=0;entryDy=0;labelBackgroundColor=none;fontColor=default;" parent="hdrvY5TLNorQvgxIyoRD-103" source="JkztsXf71j5ndPKpqwyT-23" target="JkztsXf71j5ndPKpqwyT-25" edge="1">
          <mxGeometry relative="1" as="geometry" />
        </mxCell>
        <mxCell id="JkztsXf71j5ndPKpqwyT-225" value="Yes" style="edgeLabel;html=1;align=center;verticalAlign=middle;resizable=0;points=[];labelBackgroundColor=none;rounded=0;" parent="JkztsXf71j5ndPKpqwyT-21" vertex="1" connectable="0">
          <mxGeometry x="-0.1148" y="-3" relative="1" as="geometry">
            <mxPoint y="-9" as="offset" />
          </mxGeometry>
        </mxCell>
        <mxCell id="JkztsXf71j5ndPKpqwyT-22" style="edgeStyle=orthogonalEdgeStyle;rounded=0;orthogonalLoop=1;jettySize=auto;html=1;exitX=0.5;exitY=1;exitDx=0;exitDy=0;entryX=0.5;entryY=0;entryDx=0;entryDy=0;labelBackgroundColor=none;fontColor=default;" parent="hdrvY5TLNorQvgxIyoRD-103" source="JkztsXf71j5ndPKpqwyT-23" target="JkztsXf71j5ndPKpqwyT-29" edge="1">
          <mxGeometry relative="1" as="geometry" />
        </mxCell>
        <mxCell id="JkztsXf71j5ndPKpqwyT-224" value="No" style="edgeLabel;html=1;align=center;verticalAlign=middle;resizable=0;points=[];labelBackgroundColor=none;rounded=0;" parent="JkztsXf71j5ndPKpqwyT-22" vertex="1" connectable="0">
          <mxGeometry x="-0.3165" relative="1" as="geometry">
            <mxPoint x="9" y="1" as="offset" />
          </mxGeometry>
        </mxCell>
        <mxCell id="JkztsXf71j5ndPKpqwyT-23" value="is credentials correct?" style="rhombus;whiteSpace=wrap;html=1;fontSize=15;labelBackgroundColor=none;rounded=0;" parent="hdrvY5TLNorQvgxIyoRD-103" vertex="1">
          <mxGeometry x="28.749999999999996" y="282.90000000000003" width="172.5" height="134.55" as="geometry" />
        </mxCell>
        <mxCell id="JkztsXf71j5ndPKpqwyT-232" value="" style="edgeStyle=orthogonalEdgeStyle;rounded=0;orthogonalLoop=1;jettySize=auto;html=1;labelBackgroundColor=none;fontColor=default;" parent="hdrvY5TLNorQvgxIyoRD-103" source="JkztsXf71j5ndPKpqwyT-25" target="JkztsXf71j5ndPKpqwyT-231" edge="1">
          <mxGeometry relative="1" as="geometry" />
        </mxCell>
        <mxCell id="JkztsXf71j5ndPKpqwyT-25" value="DISPLAY &quot;Successfully Log In&quot;" style="shape=parallelogram;perimeter=parallelogramPerimeter;whiteSpace=wrap;html=1;fixedSize=1;fontSize=15;labelBackgroundColor=none;rounded=0;" parent="hdrvY5TLNorQvgxIyoRD-103" vertex="1">
          <mxGeometry x="241.5" y="309.93" width="228.5" height="80.5" as="geometry" />
        </mxCell>
        <mxCell id="JkztsXf71j5ndPKpqwyT-26" style="edgeStyle=orthogonalEdgeStyle;rounded=0;orthogonalLoop=1;jettySize=auto;html=1;exitX=0.5;exitY=1;exitDx=0;exitDy=0;labelBackgroundColor=none;fontColor=default;" parent="hdrvY5TLNorQvgxIyoRD-103" edge="1">
          <mxGeometry relative="1" as="geometry">
            <mxPoint x="252.99999999999997" y="321.425" as="sourcePoint" />
            <mxPoint x="252.99999999999997" y="321.425" as="targetPoint" />
          </mxGeometry>
        </mxCell>
        <mxCell id="JkztsXf71j5ndPKpqwyT-245" value="" style="edgeStyle=orthogonalEdgeStyle;rounded=0;orthogonalLoop=1;jettySize=auto;html=1;labelBackgroundColor=none;fontColor=default;" parent="hdrvY5TLNorQvgxIyoRD-103" source="JkztsXf71j5ndPKpqwyT-29" target="JkztsXf71j5ndPKpqwyT-243" edge="1">
          <mxGeometry relative="1" as="geometry" />
        </mxCell>
        <mxCell id="JkztsXf71j5ndPKpqwyT-29" value="DISPLAY &quot;Incorrect Credentials.&quot;" style="shape=parallelogram;perimeter=parallelogramPerimeter;whiteSpace=wrap;html=1;fixedSize=1;fontSize=15;labelBackgroundColor=none;rounded=0;" parent="hdrvY5TLNorQvgxIyoRD-103" vertex="1">
          <mxGeometry y="454.25000000000006" width="229.99999999999997" height="69.00000000000001" as="geometry" />
        </mxCell>
        <mxCell id="JkztsXf71j5ndPKpqwyT-248" value="" style="edgeStyle=orthogonalEdgeStyle;rounded=0;orthogonalLoop=1;jettySize=auto;html=1;labelBackgroundColor=none;fontColor=default;" parent="hdrvY5TLNorQvgxIyoRD-103" source="JkztsXf71j5ndPKpqwyT-45" target="JkztsXf71j5ndPKpqwyT-247" edge="1">
          <mxGeometry relative="1" as="geometry" />
        </mxCell>
        <mxCell id="JkztsXf71j5ndPKpqwyT-45" value="&lt;font style=&quot;font-size: 15px;&quot;&gt;Dashboard&lt;/font&gt;" style="shape=process;whiteSpace=wrap;html=1;backgroundOutline=1;labelBackgroundColor=none;rounded=0;" parent="hdrvY5TLNorQvgxIyoRD-103" vertex="1">
          <mxGeometry x="264.5" y="535.9000000000001" width="172.5" height="80.50000000000001" as="geometry" />
        </mxCell>
        <mxCell id="JkztsXf71j5ndPKpqwyT-219" value="&lt;span style=&quot;font-size: 15px;&quot;&gt;Start&lt;/span&gt;" style="ellipse;whiteSpace=wrap;html=1;labelBackgroundColor=none;rounded=0;" parent="hdrvY5TLNorQvgxIyoRD-103" vertex="1">
          <mxGeometry x="73.1745" y="34.50000000000001" width="83.6395" height="57.50000000000001" as="geometry" />
        </mxCell>
        <mxCell id="JkztsXf71j5ndPKpqwyT-223" style="edgeStyle=orthogonalEdgeStyle;rounded=0;orthogonalLoop=1;jettySize=auto;html=1;exitX=0.5;exitY=1;exitDx=0;exitDy=0;labelBackgroundColor=none;fontColor=default;" parent="hdrvY5TLNorQvgxIyoRD-103" edge="1">
          <mxGeometry relative="1" as="geometry">
            <mxPoint x="92" y="470.92500000000007" as="sourcePoint" />
            <mxPoint x="92" y="470.92500000000007" as="targetPoint" />
          </mxGeometry>
        </mxCell>
        <mxCell id="JkztsXf71j5ndPKpqwyT-230" value="Sign In Flowchart" style="text;html=1;align=center;verticalAlign=middle;resizable=0;points=[];autosize=1;strokeColor=none;fillColor=none;labelBackgroundColor=none;rounded=0;" parent="hdrvY5TLNorQvgxIyoRD-103" vertex="1">
          <mxGeometry x="40.25" width="120" height="30" as="geometry" />
        </mxCell>
        <mxCell id="JkztsXf71j5ndPKpqwyT-233" value="" style="edgeStyle=orthogonalEdgeStyle;rounded=0;orthogonalLoop=1;jettySize=auto;html=1;labelBackgroundColor=none;fontColor=default;" parent="hdrvY5TLNorQvgxIyoRD-103" source="JkztsXf71j5ndPKpqwyT-231" target="JkztsXf71j5ndPKpqwyT-45" edge="1">
          <mxGeometry relative="1" as="geometry" />
        </mxCell>
        <mxCell id="JkztsXf71j5ndPKpqwyT-231" value="Dipose Sign In" style="whiteSpace=wrap;html=1;fontSize=15;labelBackgroundColor=none;rounded=0;" parent="hdrvY5TLNorQvgxIyoRD-103" vertex="1">
          <mxGeometry x="281.75" y="424.35" width="138" height="69.00000000000001" as="geometry" />
        </mxCell>
        <mxCell id="JkztsXf71j5ndPKpqwyT-243" value="B" style="ellipse;whiteSpace=wrap;html=1;labelBackgroundColor=none;rounded=0;" parent="hdrvY5TLNorQvgxIyoRD-103" vertex="1">
          <mxGeometry x="101.19999999999999" y="565.8000000000001" width="27.599999999999998" height="27.6" as="geometry" />
        </mxCell>
        <mxCell id="JkztsXf71j5ndPKpqwyT-247" value="&lt;span style=&quot;font-size: 15px;&quot;&gt;End&lt;/span&gt;" style="ellipse;whiteSpace=wrap;html=1;labelBackgroundColor=none;rounded=0;" parent="hdrvY5TLNorQvgxIyoRD-103" vertex="1">
          <mxGeometry x="308.936" y="654.35" width="83.6395" height="57.50000000000001" as="geometry" />
        </mxCell>
        <mxCell id="hdrvY5TLNorQvgxIyoRD-104" value="" style="group;rounded=0;labelBackgroundColor=none;" vertex="1" connectable="0" parent="1">
          <mxGeometry x="2170" y="-10180.57" width="590" height="810.57" as="geometry" />
        </mxCell>
        <mxCell id="hdrvY5TLNorQvgxIyoRD-1" style="edgeStyle=orthogonalEdgeStyle;rounded=0;orthogonalLoop=1;jettySize=auto;html=1;entryX=0.5;entryY=0;entryDx=0;entryDy=0;labelBackgroundColor=none;fontColor=default;" edge="1" parent="hdrvY5TLNorQvgxIyoRD-104" source="hdrvY5TLNorQvgxIyoRD-2" target="hdrvY5TLNorQvgxIyoRD-5">
          <mxGeometry relative="1" as="geometry" />
        </mxCell>
        <mxCell id="hdrvY5TLNorQvgxIyoRD-2" value="&lt;font style=&quot;font-size: 15px;&quot;&gt;START&lt;/font&gt;" style="ellipse;whiteSpace=wrap;html=1;labelBackgroundColor=none;rounded=0;" vertex="1" parent="hdrvY5TLNorQvgxIyoRD-104">
          <mxGeometry x="88.02800000000015" y="46.98956521739131" width="112.37533333333333" height="58.73695652173913" as="geometry" />
        </mxCell>
        <mxCell id="hdrvY5TLNorQvgxIyoRD-3" value="&lt;font style=&quot;font-size: 15px;&quot;&gt;Deposit&lt;/font&gt;" style="text;html=1;align=center;verticalAlign=middle;whiteSpace=wrap;rounded=0;labelBackgroundColor=none;" vertex="1" parent="hdrvY5TLNorQvgxIyoRD-104">
          <mxGeometry x="104.8888888888889" width="78.66666666666667" height="35.24217391304348" as="geometry" />
        </mxCell>
        <mxCell id="hdrvY5TLNorQvgxIyoRD-4" style="edgeStyle=orthogonalEdgeStyle;rounded=0;orthogonalLoop=1;jettySize=auto;html=1;exitX=0.5;exitY=1;exitDx=0;exitDy=0;entryX=0.5;entryY=0;entryDx=0;entryDy=0;labelBackgroundColor=none;fontColor=default;" edge="1" parent="hdrvY5TLNorQvgxIyoRD-104" source="hdrvY5TLNorQvgxIyoRD-5" target="hdrvY5TLNorQvgxIyoRD-8">
          <mxGeometry relative="1" as="geometry" />
        </mxCell>
        <mxCell id="hdrvY5TLNorQvgxIyoRD-5" value="GET deposit" style="shape=parallelogram;perimeter=parallelogramPerimeter;whiteSpace=wrap;html=1;fixedSize=1;labelBackgroundColor=none;rounded=0;" vertex="1" parent="hdrvY5TLNorQvgxIyoRD-104">
          <mxGeometry x="52.44444444444445" y="140.96869565217392" width="183.55555555555557" height="70.48434782608696" as="geometry" />
        </mxCell>
        <mxCell id="hdrvY5TLNorQvgxIyoRD-6" style="edgeStyle=orthogonalEdgeStyle;rounded=0;orthogonalLoop=1;jettySize=auto;html=1;exitX=0.5;exitY=1;exitDx=0;exitDy=0;labelBackgroundColor=none;fontColor=default;" edge="1" parent="hdrvY5TLNorQvgxIyoRD-104" source="hdrvY5TLNorQvgxIyoRD-8" target="hdrvY5TLNorQvgxIyoRD-10">
          <mxGeometry relative="1" as="geometry" />
        </mxCell>
        <mxCell id="hdrvY5TLNorQvgxIyoRD-7" style="edgeStyle=orthogonalEdgeStyle;rounded=0;orthogonalLoop=1;jettySize=auto;html=1;exitX=1;exitY=0.5;exitDx=0;exitDy=0;labelBackgroundColor=none;fontColor=default;" edge="1" parent="hdrvY5TLNorQvgxIyoRD-104" source="hdrvY5TLNorQvgxIyoRD-8" target="hdrvY5TLNorQvgxIyoRD-12">
          <mxGeometry relative="1" as="geometry" />
        </mxCell>
        <mxCell id="hdrvY5TLNorQvgxIyoRD-8" value="if (amount&amp;nbsp; &amp;lt;=0)" style="rhombus;whiteSpace=wrap;html=1;labelBackgroundColor=none;rounded=0;" vertex="1" parent="hdrvY5TLNorQvgxIyoRD-104">
          <mxGeometry x="78.66666666666667" y="258.4426086956522" width="131.11111111111111" height="117.47391304347826" as="geometry" />
        </mxCell>
        <mxCell id="hdrvY5TLNorQvgxIyoRD-9" style="edgeStyle=orthogonalEdgeStyle;rounded=0;orthogonalLoop=1;jettySize=auto;html=1;exitX=0.5;exitY=1;exitDx=0;exitDy=0;labelBackgroundColor=none;fontColor=default;" edge="1" parent="hdrvY5TLNorQvgxIyoRD-104" source="hdrvY5TLNorQvgxIyoRD-10" target="hdrvY5TLNorQvgxIyoRD-14">
          <mxGeometry relative="1" as="geometry" />
        </mxCell>
        <mxCell id="hdrvY5TLNorQvgxIyoRD-10" value="DISPLAY &quot;Successfully deposited {amount}&lt;br&gt;New balance: {amount}&quot;" style="shape=parallelogram;perimeter=parallelogramPerimeter;whiteSpace=wrap;html=1;fixedSize=1;labelBackgroundColor=none;rounded=0;" vertex="1" parent="hdrvY5TLNorQvgxIyoRD-104">
          <mxGeometry y="422.9060869565218" width="288.44444444444446" height="82.23173913043479" as="geometry" />
        </mxCell>
        <mxCell id="hdrvY5TLNorQvgxIyoRD-11" style="edgeStyle=orthogonalEdgeStyle;rounded=0;orthogonalLoop=1;jettySize=auto;html=1;exitX=1;exitY=0.5;exitDx=0;exitDy=0;entryX=0;entryY=0.5;entryDx=0;entryDy=0;labelBackgroundColor=none;fontColor=default;" edge="1" parent="hdrvY5TLNorQvgxIyoRD-104" source="hdrvY5TLNorQvgxIyoRD-12" target="hdrvY5TLNorQvgxIyoRD-15">
          <mxGeometry relative="1" as="geometry" />
        </mxCell>
        <mxCell id="hdrvY5TLNorQvgxIyoRD-12" value="DISPLAY &quot;Deposit amount must be greater than than zero&quot;" style="shape=parallelogram;perimeter=parallelogramPerimeter;whiteSpace=wrap;html=1;fixedSize=1;labelBackgroundColor=none;rounded=0;" vertex="1" parent="hdrvY5TLNorQvgxIyoRD-104">
          <mxGeometry x="275.3333333333333" y="281.93739130434784" width="222.8888888888889" height="70.48434782608696" as="geometry" />
        </mxCell>
        <mxCell id="hdrvY5TLNorQvgxIyoRD-13" value="" style="edgeStyle=orthogonalEdgeStyle;rounded=0;orthogonalLoop=1;jettySize=auto;html=1;labelBackgroundColor=none;fontColor=default;" edge="1" parent="hdrvY5TLNorQvgxIyoRD-104" source="hdrvY5TLNorQvgxIyoRD-14" target="hdrvY5TLNorQvgxIyoRD-61">
          <mxGeometry relative="1" as="geometry" />
        </mxCell>
        <mxCell id="hdrvY5TLNorQvgxIyoRD-14" value="&lt;font style=&quot;font-size: 15px;&quot;&gt;Generate Receipt&lt;/font&gt;" style="shape=parallelogram;perimeter=parallelogramPerimeter;whiteSpace=wrap;html=1;fixedSize=1;labelBackgroundColor=none;rounded=0;" vertex="1" parent="hdrvY5TLNorQvgxIyoRD-104">
          <mxGeometry x="39.333333333333336" y="540.38" width="209.7777777777778" height="70.48434782608696" as="geometry" />
        </mxCell>
        <mxCell id="hdrvY5TLNorQvgxIyoRD-15" value="A" style="ellipse;whiteSpace=wrap;html=1;aspect=fixed;labelBackgroundColor=none;rounded=0;" vertex="1" parent="hdrvY5TLNorQvgxIyoRD-104">
          <mxGeometry x="537.5555555555555" y="293.6847826086957" width="46.858506571644455" height="46.858506571644455" as="geometry" />
        </mxCell>
        <mxCell id="hdrvY5TLNorQvgxIyoRD-16" value="&lt;font style=&quot;font-size: 15px;&quot;&gt;No&lt;/font&gt;" style="text;html=1;align=center;verticalAlign=middle;whiteSpace=wrap;rounded=0;labelBackgroundColor=none;" vertex="1" parent="hdrvY5TLNorQvgxIyoRD-104">
          <mxGeometry x="205.84444444444443" y="287.8110869565218" width="78.66666666666667" height="35.24217391304348" as="geometry" />
        </mxCell>
        <mxCell id="hdrvY5TLNorQvgxIyoRD-17" value="&lt;font style=&quot;font-size: 15px;&quot;&gt;Yes&lt;/font&gt;" style="text;html=1;align=center;verticalAlign=middle;whiteSpace=wrap;rounded=0;labelBackgroundColor=none;" vertex="1" parent="hdrvY5TLNorQvgxIyoRD-104">
          <mxGeometry x="65.55555555555556" y="375.9165217391305" width="78.66666666666667" height="35.24217391304348" as="geometry" />
        </mxCell>
        <mxCell id="hdrvY5TLNorQvgxIyoRD-18" style="edgeStyle=orthogonalEdgeStyle;rounded=0;orthogonalLoop=1;jettySize=auto;html=1;exitX=1;exitY=0.5;exitDx=0;exitDy=0;labelBackgroundColor=none;fontColor=default;" edge="1" parent="hdrvY5TLNorQvgxIyoRD-104" source="hdrvY5TLNorQvgxIyoRD-19">
          <mxGeometry relative="1" as="geometry">
            <mxPoint x="144.22222222222223" y="117.10933883058382" as="targetPoint" />
          </mxGeometry>
        </mxCell>
        <mxCell id="hdrvY5TLNorQvgxIyoRD-19" value="A" style="ellipse;whiteSpace=wrap;html=1;aspect=fixed;labelBackgroundColor=none;rounded=0;" vertex="1" parent="hdrvY5TLNorQvgxIyoRD-104">
          <mxGeometry x="13.111111111111112" y="93.97913043478262" width="46.858506571644455" height="46.858506571644455" as="geometry" />
        </mxCell>
        <mxCell id="hdrvY5TLNorQvgxIyoRD-60" value="" style="edgeStyle=orthogonalEdgeStyle;rounded=0;orthogonalLoop=1;jettySize=auto;html=1;labelBackgroundColor=none;fontColor=default;" edge="1" parent="hdrvY5TLNorQvgxIyoRD-104" source="hdrvY5TLNorQvgxIyoRD-61" target="hdrvY5TLNorQvgxIyoRD-62">
          <mxGeometry relative="1" as="geometry" />
        </mxCell>
        <mxCell id="hdrvY5TLNorQvgxIyoRD-61" value="&lt;font style=&quot;font-size: 15px;&quot;&gt;Dashboard&lt;/font&gt;" style="shape=process;whiteSpace=wrap;html=1;backgroundOutline=1;labelBackgroundColor=none;rounded=0;" vertex="1" parent="hdrvY5TLNorQvgxIyoRD-104">
          <mxGeometry x="45.88888888888889" y="647.2812608695652" width="196.66666666666666" height="82.23173913043479" as="geometry" />
        </mxCell>
        <mxCell id="hdrvY5TLNorQvgxIyoRD-62" value="&lt;font style=&quot;font-size: 15px;&quot;&gt;END&lt;/font&gt;" style="ellipse;whiteSpace=wrap;html=1;labelBackgroundColor=none;rounded=0;" vertex="1" parent="hdrvY5TLNorQvgxIyoRD-104">
          <mxGeometry x="104.8888888888889" y="763.5804347826088" width="78.66666666666667" height="46.98956521739131" as="geometry" />
        </mxCell>
        <mxCell id="hdrvY5TLNorQvgxIyoRD-105" value="" style="group;rounded=0;labelBackgroundColor=none;" vertex="1" connectable="0" parent="1">
          <mxGeometry x="2930" y="-10200" width="453.24" height="840" as="geometry" />
        </mxCell>
        <mxCell id="hdrvY5TLNorQvgxIyoRD-39" style="edgeStyle=orthogonalEdgeStyle;rounded=0;orthogonalLoop=1;jettySize=auto;html=1;exitX=0.5;exitY=1;exitDx=0;exitDy=0;entryX=0.5;entryY=0;entryDx=0;entryDy=0;labelBackgroundColor=none;fontColor=default;" edge="1" parent="hdrvY5TLNorQvgxIyoRD-105" source="hdrvY5TLNorQvgxIyoRD-40" target="hdrvY5TLNorQvgxIyoRD-43">
          <mxGeometry relative="1" as="geometry">
            <mxPoint x="116.21538461538461" y="192.97297297297294" as="targetPoint" />
          </mxGeometry>
        </mxCell>
        <mxCell id="hdrvY5TLNorQvgxIyoRD-40" value="START" style="ellipse;whiteSpace=wrap;html=1;labelBackgroundColor=none;rounded=0;" vertex="1" parent="hdrvY5TLNorQvgxIyoRD-105">
          <mxGeometry x="63.918461538461536" y="68.1081081081081" width="104.59384615384614" height="68.1081081081081" as="geometry" />
        </mxCell>
        <mxCell id="hdrvY5TLNorQvgxIyoRD-41" value="&lt;font style=&quot;font-size: 15px;&quot;&gt;WITHDRAW&lt;/font&gt;" style="text;html=1;align=center;verticalAlign=middle;resizable=0;points=[];autosize=1;strokeColor=none;fillColor=none;labelBackgroundColor=none;rounded=0;" vertex="1" parent="hdrvY5TLNorQvgxIyoRD-105">
          <mxGeometry x="59.90828260151866" y="29.999999999999996" width="110" height="30" as="geometry" />
        </mxCell>
        <mxCell id="hdrvY5TLNorQvgxIyoRD-42" style="edgeStyle=orthogonalEdgeStyle;rounded=0;orthogonalLoop=1;jettySize=auto;html=1;entryX=0.5;entryY=0;entryDx=0;entryDy=0;labelBackgroundColor=none;fontColor=default;" edge="1" parent="hdrvY5TLNorQvgxIyoRD-105" source="hdrvY5TLNorQvgxIyoRD-43" target="hdrvY5TLNorQvgxIyoRD-65">
          <mxGeometry relative="1" as="geometry" />
        </mxCell>
        <mxCell id="hdrvY5TLNorQvgxIyoRD-43" value="GET amount" style="shape=parallelogram;perimeter=parallelogramPerimeter;whiteSpace=wrap;html=1;fixedSize=1;labelBackgroundColor=none;rounded=0;" vertex="1" parent="hdrvY5TLNorQvgxIyoRD-105">
          <mxGeometry y="181.6216216216216" width="232.43076923076922" height="68.1081081081081" as="geometry" />
        </mxCell>
        <mxCell id="hdrvY5TLNorQvgxIyoRD-63" style="edgeStyle=orthogonalEdgeStyle;rounded=0;orthogonalLoop=1;jettySize=auto;html=1;exitX=1;exitY=0.5;exitDx=0;exitDy=0;entryX=0;entryY=0.5;entryDx=0;entryDy=0;labelBackgroundColor=none;fontColor=default;" edge="1" parent="hdrvY5TLNorQvgxIyoRD-105" source="hdrvY5TLNorQvgxIyoRD-65" target="hdrvY5TLNorQvgxIyoRD-71">
          <mxGeometry relative="1" as="geometry" />
        </mxCell>
        <mxCell id="hdrvY5TLNorQvgxIyoRD-64" style="edgeStyle=orthogonalEdgeStyle;rounded=0;orthogonalLoop=1;jettySize=auto;html=1;exitX=0.5;exitY=1;exitDx=0;exitDy=0;entryX=0.5;entryY=0;entryDx=0;entryDy=0;labelBackgroundColor=none;fontColor=default;" edge="1" parent="hdrvY5TLNorQvgxIyoRD-105" source="hdrvY5TLNorQvgxIyoRD-65" target="hdrvY5TLNorQvgxIyoRD-74">
          <mxGeometry relative="1" as="geometry" />
        </mxCell>
        <mxCell id="hdrvY5TLNorQvgxIyoRD-65" value="if (amount &amp;lt;=0)&amp;nbsp;" style="rhombus;whiteSpace=wrap;html=1;labelBackgroundColor=none;rounded=0;" vertex="1" parent="hdrvY5TLNorQvgxIyoRD-105">
          <mxGeometry x="69.72923076923077" y="278.10810810810807" width="92.9723076923077" height="79.45945945945944" as="geometry" />
        </mxCell>
        <mxCell id="hdrvY5TLNorQvgxIyoRD-66" style="edgeStyle=orthogonalEdgeStyle;rounded=0;orthogonalLoop=1;jettySize=auto;html=1;exitX=0.5;exitY=1;exitDx=0;exitDy=0;labelBackgroundColor=none;fontColor=default;" edge="1" parent="hdrvY5TLNorQvgxIyoRD-105" source="hdrvY5TLNorQvgxIyoRD-65" target="hdrvY5TLNorQvgxIyoRD-65">
          <mxGeometry relative="1" as="geometry" />
        </mxCell>
        <mxCell id="hdrvY5TLNorQvgxIyoRD-67" style="edgeStyle=orthogonalEdgeStyle;rounded=0;orthogonalLoop=1;jettySize=auto;html=1;exitX=0.5;exitY=1;exitDx=0;exitDy=0;entryX=0.5;entryY=0;entryDx=0;entryDy=0;labelBackgroundColor=none;fontColor=default;" edge="1" parent="hdrvY5TLNorQvgxIyoRD-105" source="hdrvY5TLNorQvgxIyoRD-68" target="hdrvY5TLNorQvgxIyoRD-76">
          <mxGeometry relative="1" as="geometry" />
        </mxCell>
        <mxCell id="hdrvY5TLNorQvgxIyoRD-68" value="DISPLAY &quot;Successfully transferred&quot;" style="shape=parallelogram;perimeter=parallelogramPerimeter;whiteSpace=wrap;html=1;fixedSize=1;labelBackgroundColor=none;rounded=0;" vertex="1" parent="hdrvY5TLNorQvgxIyoRD-105">
          <mxGeometry x="11.621538461538462" y="499.4594594594594" width="209.1876923076923" height="56.756756756756744" as="geometry" />
        </mxCell>
        <mxCell id="hdrvY5TLNorQvgxIyoRD-69" value="YES" style="text;html=1;align=center;verticalAlign=middle;whiteSpace=wrap;rounded=0;labelBackgroundColor=none;" vertex="1" parent="hdrvY5TLNorQvgxIyoRD-105">
          <mxGeometry x="151.07999999999996" y="295.13513513513504" width="69.72923076923077" height="34.05405405405405" as="geometry" />
        </mxCell>
        <mxCell id="hdrvY5TLNorQvgxIyoRD-70" value="NO" style="text;html=1;align=center;verticalAlign=middle;whiteSpace=wrap;rounded=0;labelBackgroundColor=none;" vertex="1" parent="hdrvY5TLNorQvgxIyoRD-105">
          <mxGeometry x="92.9723076923077" y="357.5675675675675" width="69.72923076923077" height="34.05405405405405" as="geometry" />
        </mxCell>
        <mxCell id="hdrvY5TLNorQvgxIyoRD-71" value="DISPLAY &quot;Withdraw amount must be greater than zero&quot;" style="shape=parallelogram;perimeter=parallelogramPerimeter;whiteSpace=wrap;html=1;fixedSize=1;labelBackgroundColor=none;rounded=0;" vertex="1" parent="hdrvY5TLNorQvgxIyoRD-105">
          <mxGeometry x="209.1876923076923" y="278.10810810810807" width="209.1876923076923" height="79.45945945945944" as="geometry" />
        </mxCell>
        <mxCell id="hdrvY5TLNorQvgxIyoRD-72" style="edgeStyle=orthogonalEdgeStyle;rounded=0;orthogonalLoop=1;jettySize=auto;html=1;exitX=0.5;exitY=1;exitDx=0;exitDy=0;entryX=0.5;entryY=0;entryDx=0;entryDy=0;labelBackgroundColor=none;fontColor=default;" edge="1" parent="hdrvY5TLNorQvgxIyoRD-105" source="hdrvY5TLNorQvgxIyoRD-74" target="hdrvY5TLNorQvgxIyoRD-68">
          <mxGeometry relative="1" as="geometry" />
        </mxCell>
        <mxCell id="hdrvY5TLNorQvgxIyoRD-73" style="edgeStyle=orthogonalEdgeStyle;rounded=0;orthogonalLoop=1;jettySize=auto;html=1;exitX=1;exitY=0.5;exitDx=0;exitDy=0;labelBackgroundColor=none;fontColor=default;" edge="1" parent="hdrvY5TLNorQvgxIyoRD-105" source="hdrvY5TLNorQvgxIyoRD-74" target="hdrvY5TLNorQvgxIyoRD-75">
          <mxGeometry relative="1" as="geometry" />
        </mxCell>
        <mxCell id="hdrvY5TLNorQvgxIyoRD-74" value="bal&amp;gt;amount" style="rhombus;whiteSpace=wrap;html=1;labelBackgroundColor=none;rounded=0;" vertex="1" parent="hdrvY5TLNorQvgxIyoRD-105">
          <mxGeometry x="69.72923076923077" y="392.75675675675666" width="92.9723076923077" height="68.1081081081081" as="geometry" />
        </mxCell>
        <mxCell id="hdrvY5TLNorQvgxIyoRD-75" value="DISPLAY &quot;insufficient balance&quot;" style="shape=parallelogram;perimeter=parallelogramPerimeter;whiteSpace=wrap;html=1;fixedSize=1;labelBackgroundColor=none;rounded=0;" vertex="1" parent="hdrvY5TLNorQvgxIyoRD-105">
          <mxGeometry x="197.56615384615384" y="392.75675675675666" width="174.32307692307694" height="68.1081081081081" as="geometry" />
        </mxCell>
        <mxCell id="hdrvY5TLNorQvgxIyoRD-76" value="generate Receipt" style="shape=parallelogram;perimeter=parallelogramPerimeter;whiteSpace=wrap;html=1;fixedSize=1;labelBackgroundColor=none;rounded=0;" vertex="1" parent="hdrvY5TLNorQvgxIyoRD-105">
          <mxGeometry x="40.67538461538462" y="578.9189189189187" width="151.07999999999996" height="68.1081081081081" as="geometry" />
        </mxCell>
        <mxCell id="hdrvY5TLNorQvgxIyoRD-77" value="YES" style="text;html=1;align=center;verticalAlign=middle;whiteSpace=wrap;rounded=0;labelBackgroundColor=none;" vertex="1" parent="hdrvY5TLNorQvgxIyoRD-105">
          <mxGeometry x="58.107692307692304" y="460.8648648648647" width="69.72923076923077" height="34.05405405405405" as="geometry" />
        </mxCell>
        <mxCell id="hdrvY5TLNorQvgxIyoRD-78" value="NO" style="text;html=1;align=center;verticalAlign=middle;whiteSpace=wrap;rounded=0;labelBackgroundColor=none;" vertex="1" parent="hdrvY5TLNorQvgxIyoRD-105">
          <mxGeometry x="151.07999999999996" y="402.9729729729729" width="69.72923076923077" height="34.05405405405405" as="geometry" />
        </mxCell>
        <mxCell id="hdrvY5TLNorQvgxIyoRD-79" value="A" style="ellipse;whiteSpace=wrap;html=1;aspect=fixed;labelBackgroundColor=none;rounded=0;" vertex="1" parent="hdrvY5TLNorQvgxIyoRD-105">
          <mxGeometry x="395.1323076923077" y="392.75675675675666" width="56.75635062611806" height="56.75635062611806" as="geometry" />
        </mxCell>
        <mxCell id="hdrvY5TLNorQvgxIyoRD-80" style="edgeStyle=orthogonalEdgeStyle;rounded=0;orthogonalLoop=1;jettySize=auto;html=1;exitX=1;exitY=0.5;exitDx=0;exitDy=0;entryX=0;entryY=0.6;entryDx=0;entryDy=0;entryPerimeter=0;labelBackgroundColor=none;fontColor=default;" edge="1" parent="hdrvY5TLNorQvgxIyoRD-105" source="hdrvY5TLNorQvgxIyoRD-75" target="hdrvY5TLNorQvgxIyoRD-79">
          <mxGeometry relative="1" as="geometry" />
        </mxCell>
        <mxCell id="hdrvY5TLNorQvgxIyoRD-81" value="" style="rounded=0;orthogonalLoop=1;jettySize=auto;html=1;exitX=0.466;exitY=1.006;exitDx=0;exitDy=0;exitPerimeter=0;labelBackgroundColor=none;fontColor=default;" edge="1" parent="hdrvY5TLNorQvgxIyoRD-105" source="hdrvY5TLNorQvgxIyoRD-76" target="hdrvY5TLNorQvgxIyoRD-83">
          <mxGeometry relative="1" as="geometry">
            <mxPoint x="110.40461538461537" y="647.0270270270269" as="sourcePoint" />
          </mxGeometry>
        </mxCell>
        <mxCell id="hdrvY5TLNorQvgxIyoRD-82" value="" style="edgeStyle=orthogonalEdgeStyle;rounded=0;orthogonalLoop=1;jettySize=auto;html=1;labelBackgroundColor=none;fontColor=default;" edge="1" parent="hdrvY5TLNorQvgxIyoRD-105" source="hdrvY5TLNorQvgxIyoRD-83" target="hdrvY5TLNorQvgxIyoRD-84">
          <mxGeometry relative="1" as="geometry" />
        </mxCell>
        <mxCell id="hdrvY5TLNorQvgxIyoRD-83" value="&lt;font style=&quot;font-size: 15px;&quot;&gt;Dashboard&lt;/font&gt;" style="shape=process;whiteSpace=wrap;html=1;backgroundOutline=1;labelBackgroundColor=none;rounded=0;" vertex="1" parent="hdrvY5TLNorQvgxIyoRD-105">
          <mxGeometry x="24.405230769230766" y="682.2162162162161" width="174.32307692307694" height="79.45945945945944" as="geometry" />
        </mxCell>
        <mxCell id="hdrvY5TLNorQvgxIyoRD-84" value="&lt;font style=&quot;font-size: 15px;&quot;&gt;END&lt;/font&gt;" style="ellipse;whiteSpace=wrap;html=1;labelBackgroundColor=none;rounded=0;" vertex="1" parent="hdrvY5TLNorQvgxIyoRD-105">
          <mxGeometry x="76.70215384615385" y="794.5945945945945" width="69.72923076923077" height="45.4054054054054" as="geometry" />
        </mxCell>
        <mxCell id="hdrvY5TLNorQvgxIyoRD-106" value="" style="group;rounded=0;labelBackgroundColor=none;" vertex="1" connectable="0" parent="1">
          <mxGeometry x="3450" y="-10178.29" width="639.57" height="828.29" as="geometry" />
        </mxCell>
        <mxCell id="hdrvY5TLNorQvgxIyoRD-20" value="START" style="ellipse;whiteSpace=wrap;html=1;labelBackgroundColor=none;rounded=0;" vertex="1" parent="hdrvY5TLNorQvgxIyoRD-106">
          <mxGeometry x="52.42377049180329" y="37.22651685393257" width="125.8170491803279" height="55.83977528089887" as="geometry" />
        </mxCell>
        <mxCell id="hdrvY5TLNorQvgxIyoRD-21" value="&lt;font style=&quot;font-size: 15px;&quot;&gt;TRANSFER MONEY&lt;/font&gt;" style="text;html=1;align=center;verticalAlign=middle;whiteSpace=wrap;rounded=0;labelBackgroundColor=none;" vertex="1" parent="hdrvY5TLNorQvgxIyoRD-106">
          <mxGeometry x="20.969508196721318" width="188.72557377049182" height="27.919887640449435" as="geometry" />
        </mxCell>
        <mxCell id="hdrvY5TLNorQvgxIyoRD-22" style="edgeStyle=orthogonalEdgeStyle;rounded=0;orthogonalLoop=1;jettySize=auto;html=1;exitX=0.5;exitY=1;exitDx=0;exitDy=0;entryX=0.5;entryY=0;entryDx=0;entryDy=0;labelBackgroundColor=none;fontColor=default;" edge="1" parent="hdrvY5TLNorQvgxIyoRD-106" source="hdrvY5TLNorQvgxIyoRD-20" target="hdrvY5TLNorQvgxIyoRD-24">
          <mxGeometry relative="1" as="geometry">
            <mxPoint x="115.33229508196723" y="186.1325842696629" as="sourcePoint" />
          </mxGeometry>
        </mxCell>
        <mxCell id="hdrvY5TLNorQvgxIyoRD-23" style="edgeStyle=orthogonalEdgeStyle;rounded=0;orthogonalLoop=1;jettySize=auto;html=1;exitX=0.5;exitY=1;exitDx=0;exitDy=0;entryX=0.5;entryY=0;entryDx=0;entryDy=0;labelBackgroundColor=none;fontColor=default;" edge="1" parent="hdrvY5TLNorQvgxIyoRD-106" source="hdrvY5TLNorQvgxIyoRD-24" target="hdrvY5TLNorQvgxIyoRD-27">
          <mxGeometry relative="1" as="geometry" />
        </mxCell>
        <mxCell id="hdrvY5TLNorQvgxIyoRD-24" value="GET recipient" style="shape=parallelogram;perimeter=parallelogramPerimeter;whiteSpace=wrap;html=1;fixedSize=1;labelBackgroundColor=none;rounded=0;" vertex="1" parent="hdrvY5TLNorQvgxIyoRD-106">
          <mxGeometry x="52.42377049180329" y="130.29280898876402" width="125.8170491803279" height="55.83977528089887" as="geometry" />
        </mxCell>
        <mxCell id="hdrvY5TLNorQvgxIyoRD-25" style="edgeStyle=orthogonalEdgeStyle;rounded=0;orthogonalLoop=1;jettySize=auto;html=1;exitX=1;exitY=0.5;exitDx=0;exitDy=0;labelBackgroundColor=none;fontColor=default;" edge="1" parent="hdrvY5TLNorQvgxIyoRD-106" source="hdrvY5TLNorQvgxIyoRD-27" target="hdrvY5TLNorQvgxIyoRD-28">
          <mxGeometry relative="1" as="geometry" />
        </mxCell>
        <mxCell id="hdrvY5TLNorQvgxIyoRD-26" style="edgeStyle=orthogonalEdgeStyle;rounded=0;orthogonalLoop=1;jettySize=auto;html=1;exitX=0.5;exitY=1;exitDx=0;exitDy=0;entryX=0.5;entryY=0;entryDx=0;entryDy=0;labelBackgroundColor=none;fontColor=default;" edge="1" parent="hdrvY5TLNorQvgxIyoRD-106" source="hdrvY5TLNorQvgxIyoRD-27">
          <mxGeometry relative="1" as="geometry">
            <mxPoint x="115.33229508196723" y="344.34528089887635" as="targetPoint" />
          </mxGeometry>
        </mxCell>
        <mxCell id="hdrvY5TLNorQvgxIyoRD-27" value="if (!userExists&lt;br&gt;(recipient))" style="rhombus;whiteSpace=wrap;html=1;labelBackgroundColor=none;rounded=0;" vertex="1" parent="hdrvY5TLNorQvgxIyoRD-106">
          <mxGeometry x="62.90852459016395" y="223.35910112359548" width="104.84754098360658" height="83.7596629213483" as="geometry" />
        </mxCell>
        <mxCell id="hdrvY5TLNorQvgxIyoRD-28" value="DISPLAY &quot;recepient does not exist&quot;" style="shape=parallelogram;perimeter=parallelogramPerimeter;whiteSpace=wrap;html=1;fixedSize=1;labelBackgroundColor=none;rounded=0;" vertex="1" parent="hdrvY5TLNorQvgxIyoRD-106">
          <mxGeometry x="220.17983606557382" y="241.97235955056175" width="188.72557377049182" height="46.53314606741573" as="geometry" />
        </mxCell>
        <mxCell id="hdrvY5TLNorQvgxIyoRD-29" style="edgeStyle=orthogonalEdgeStyle;rounded=0;orthogonalLoop=1;jettySize=auto;html=1;exitX=1;exitY=0.5;exitDx=0;exitDy=0;entryX=0;entryY=0.5;entryDx=0;entryDy=0;labelBackgroundColor=none;fontColor=default;" edge="1" parent="hdrvY5TLNorQvgxIyoRD-106" source="hdrvY5TLNorQvgxIyoRD-31" target="hdrvY5TLNorQvgxIyoRD-46">
          <mxGeometry relative="1" as="geometry" />
        </mxCell>
        <mxCell id="hdrvY5TLNorQvgxIyoRD-30" style="edgeStyle=orthogonalEdgeStyle;rounded=0;orthogonalLoop=1;jettySize=auto;html=1;exitX=0.5;exitY=1;exitDx=0;exitDy=0;entryX=0.5;entryY=0;entryDx=0;entryDy=0;labelBackgroundColor=none;fontColor=default;" edge="1" parent="hdrvY5TLNorQvgxIyoRD-106" source="hdrvY5TLNorQvgxIyoRD-31" target="hdrvY5TLNorQvgxIyoRD-49">
          <mxGeometry relative="1" as="geometry" />
        </mxCell>
        <mxCell id="hdrvY5TLNorQvgxIyoRD-31" value="if (amount &amp;lt;=0)&amp;nbsp;" style="rhombus;whiteSpace=wrap;html=1;labelBackgroundColor=none;rounded=0;" vertex="1" parent="hdrvY5TLNorQvgxIyoRD-106">
          <mxGeometry x="241.14934426229513" y="335.0386516853932" width="83.87803278688527" height="65.14640449438201" as="geometry" />
        </mxCell>
        <mxCell id="hdrvY5TLNorQvgxIyoRD-32" style="edgeStyle=orthogonalEdgeStyle;rounded=0;orthogonalLoop=1;jettySize=auto;html=1;exitX=0.5;exitY=1;exitDx=0;exitDy=0;labelBackgroundColor=none;fontColor=default;" edge="1" parent="hdrvY5TLNorQvgxIyoRD-106" source="hdrvY5TLNorQvgxIyoRD-31" target="hdrvY5TLNorQvgxIyoRD-31">
          <mxGeometry relative="1" as="geometry" />
        </mxCell>
        <mxCell id="hdrvY5TLNorQvgxIyoRD-33" value="NO" style="text;html=1;align=center;verticalAlign=middle;whiteSpace=wrap;rounded=0;labelBackgroundColor=none;" vertex="1" parent="hdrvY5TLNorQvgxIyoRD-106">
          <mxGeometry x="167.75606557377054" y="241.97235955056175" width="62.90852459016395" height="27.919887640449435" as="geometry" />
        </mxCell>
        <mxCell id="hdrvY5TLNorQvgxIyoRD-34" value="YES" style="text;html=1;align=center;verticalAlign=middle;whiteSpace=wrap;rounded=0;labelBackgroundColor=none;" vertex="1" parent="hdrvY5TLNorQvgxIyoRD-106">
          <mxGeometry x="41.939016393442635" y="307.1187640449438" width="62.90852459016395" height="27.919887640449435" as="geometry" />
        </mxCell>
        <mxCell id="hdrvY5TLNorQvgxIyoRD-35" style="edgeStyle=orthogonalEdgeStyle;rounded=0;orthogonalLoop=1;jettySize=auto;html=1;exitX=0.5;exitY=1;exitDx=0;exitDy=0;entryX=0.5;entryY=0;entryDx=0;entryDy=0;labelBackgroundColor=none;fontColor=default;" edge="1" parent="hdrvY5TLNorQvgxIyoRD-106" source="hdrvY5TLNorQvgxIyoRD-36" target="hdrvY5TLNorQvgxIyoRD-51">
          <mxGeometry relative="1" as="geometry" />
        </mxCell>
        <mxCell id="hdrvY5TLNorQvgxIyoRD-36" value="DISPLAY&amp;nbsp;&quot;Successfully transferred&quot;" style="shape=parallelogram;perimeter=parallelogramPerimeter;whiteSpace=wrap;html=1;fixedSize=1;labelBackgroundColor=none;rounded=0;" vertex="1" parent="hdrvY5TLNorQvgxIyoRD-106">
          <mxGeometry x="199.2103278688525" y="502.55797752808985" width="167.75606557377054" height="46.53314606741573" as="geometry" />
        </mxCell>
        <mxCell id="hdrvY5TLNorQvgxIyoRD-37" value="YES" style="text;html=1;align=center;verticalAlign=middle;whiteSpace=wrap;rounded=0;labelBackgroundColor=none;" vertex="1" parent="hdrvY5TLNorQvgxIyoRD-106">
          <mxGeometry x="335.5121311475411" y="335.0386516853932" width="62.90852459016395" height="27.919887640449435" as="geometry" />
        </mxCell>
        <mxCell id="hdrvY5TLNorQvgxIyoRD-38" value="NO" style="text;html=1;align=center;verticalAlign=middle;whiteSpace=wrap;rounded=0;labelBackgroundColor=none;" vertex="1" parent="hdrvY5TLNorQvgxIyoRD-106">
          <mxGeometry x="220.17983606557382" y="400.18505617977524" width="62.90852459016395" height="27.919887640449435" as="geometry" />
        </mxCell>
        <mxCell id="hdrvY5TLNorQvgxIyoRD-44" style="edgeStyle=orthogonalEdgeStyle;rounded=0;orthogonalLoop=1;jettySize=auto;html=1;exitX=1;exitY=0.5;exitDx=0;exitDy=0;entryX=0;entryY=0.5;entryDx=0;entryDy=0;labelBackgroundColor=none;fontColor=default;" edge="1" parent="hdrvY5TLNorQvgxIyoRD-106" source="hdrvY5TLNorQvgxIyoRD-45" target="hdrvY5TLNorQvgxIyoRD-31">
          <mxGeometry relative="1" as="geometry" />
        </mxCell>
        <mxCell id="hdrvY5TLNorQvgxIyoRD-45" value="GET amount" style="shape=parallelogram;perimeter=parallelogramPerimeter;whiteSpace=wrap;html=1;fixedSize=1;labelBackgroundColor=none;rounded=0;" vertex="1" parent="hdrvY5TLNorQvgxIyoRD-106">
          <mxGeometry x="41.939016393442635" y="344.34528089887635" width="146.7865573770492" height="46.53314606741573" as="geometry" />
        </mxCell>
        <mxCell id="hdrvY5TLNorQvgxIyoRD-46" value="DISPLAY&amp;nbsp;&quot;Transfer amount must be greater than zero&quot;" style="shape=parallelogram;perimeter=parallelogramPerimeter;whiteSpace=wrap;html=1;fixedSize=1;labelBackgroundColor=none;rounded=0;" vertex="1" parent="hdrvY5TLNorQvgxIyoRD-106">
          <mxGeometry x="398.420655737705" y="335.0386516853932" width="241.14934426229513" height="65.14640449438201" as="geometry" />
        </mxCell>
        <mxCell id="hdrvY5TLNorQvgxIyoRD-47" style="edgeStyle=orthogonalEdgeStyle;rounded=0;orthogonalLoop=1;jettySize=auto;html=1;exitX=0.5;exitY=1;exitDx=0;exitDy=0;entryX=0.5;entryY=0;entryDx=0;entryDy=0;labelBackgroundColor=none;fontColor=default;" edge="1" parent="hdrvY5TLNorQvgxIyoRD-106" source="hdrvY5TLNorQvgxIyoRD-49" target="hdrvY5TLNorQvgxIyoRD-36">
          <mxGeometry relative="1" as="geometry" />
        </mxCell>
        <mxCell id="hdrvY5TLNorQvgxIyoRD-48" style="edgeStyle=orthogonalEdgeStyle;rounded=0;orthogonalLoop=1;jettySize=auto;html=1;exitX=1;exitY=0.5;exitDx=0;exitDy=0;labelBackgroundColor=none;fontColor=default;" edge="1" parent="hdrvY5TLNorQvgxIyoRD-106" source="hdrvY5TLNorQvgxIyoRD-49" target="hdrvY5TLNorQvgxIyoRD-50">
          <mxGeometry relative="1" as="geometry" />
        </mxCell>
        <mxCell id="hdrvY5TLNorQvgxIyoRD-49" value="bal&amp;gt;name" style="rhombus;whiteSpace=wrap;html=1;labelBackgroundColor=none;rounded=0;" vertex="1" parent="hdrvY5TLNorQvgxIyoRD-106">
          <mxGeometry x="241.14934426229513" y="418.79831460674154" width="83.87803278688527" height="55.83977528089887" as="geometry" />
        </mxCell>
        <mxCell id="hdrvY5TLNorQvgxIyoRD-50" value="DISPLAY&amp;nbsp;&quot;insufficient balance&quot;" style="shape=parallelogram;perimeter=parallelogramPerimeter;whiteSpace=wrap;html=1;fixedSize=1;labelBackgroundColor=none;rounded=0;" vertex="1" parent="hdrvY5TLNorQvgxIyoRD-106">
          <mxGeometry x="356.48163934426236" y="418.79831460674154" width="157.27131147540985" height="55.83977528089887" as="geometry" />
        </mxCell>
        <mxCell id="hdrvY5TLNorQvgxIyoRD-112" value="" style="edgeStyle=orthogonalEdgeStyle;rounded=0;orthogonalLoop=1;jettySize=auto;html=1;fontColor=default;labelBackgroundColor=none;" edge="1" parent="hdrvY5TLNorQvgxIyoRD-106" source="hdrvY5TLNorQvgxIyoRD-51" target="hdrvY5TLNorQvgxIyoRD-87">
          <mxGeometry relative="1" as="geometry" />
        </mxCell>
        <mxCell id="hdrvY5TLNorQvgxIyoRD-51" value="generate Receipt" style="shape=parallelogram;perimeter=parallelogramPerimeter;whiteSpace=wrap;html=1;fixedSize=1;labelBackgroundColor=none;rounded=0;" vertex="1" parent="hdrvY5TLNorQvgxIyoRD-106">
          <mxGeometry x="214.9374590163935" y="577.011011235955" width="136.30180327868854" height="55.83977528089887" as="geometry" />
        </mxCell>
        <mxCell id="hdrvY5TLNorQvgxIyoRD-52" value="A" style="ellipse;whiteSpace=wrap;html=1;aspect=fixed;labelBackgroundColor=none;rounded=0;" vertex="1" parent="hdrvY5TLNorQvgxIyoRD-106">
          <mxGeometry x="461.3291803278689" y="243.8336853932584" width="37.22651685393257" height="37.22651685393257" as="geometry" />
        </mxCell>
        <mxCell id="hdrvY5TLNorQvgxIyoRD-53" style="edgeStyle=orthogonalEdgeStyle;rounded=0;orthogonalLoop=1;jettySize=auto;html=1;exitX=1;exitY=0.5;exitDx=0;exitDy=0;entryX=0.04;entryY=0.576;entryDx=0;entryDy=0;entryPerimeter=0;labelBackgroundColor=none;fontColor=default;" edge="1" parent="hdrvY5TLNorQvgxIyoRD-106" source="hdrvY5TLNorQvgxIyoRD-28" target="hdrvY5TLNorQvgxIyoRD-52">
          <mxGeometry relative="1" as="geometry" />
        </mxCell>
        <mxCell id="hdrvY5TLNorQvgxIyoRD-54" style="edgeStyle=orthogonalEdgeStyle;rounded=0;orthogonalLoop=1;jettySize=auto;html=1;exitX=1;exitY=0.5;exitDx=0;exitDy=0;labelBackgroundColor=none;fontColor=default;" edge="1" parent="hdrvY5TLNorQvgxIyoRD-106" source="hdrvY5TLNorQvgxIyoRD-55">
          <mxGeometry relative="1" as="geometry">
            <mxPoint x="115.33229508196723" y="106.89786865556066" as="targetPoint" />
          </mxGeometry>
        </mxCell>
        <mxCell id="hdrvY5TLNorQvgxIyoRD-55" value="A" style="ellipse;whiteSpace=wrap;html=1;aspect=fixed;labelBackgroundColor=none;rounded=0;" vertex="1" parent="hdrvY5TLNorQvgxIyoRD-106">
          <mxGeometry y="93.06629213483146" width="27.919887640449435" height="27.919887640449435" as="geometry" />
        </mxCell>
        <mxCell id="hdrvY5TLNorQvgxIyoRD-56" value="YES" style="text;html=1;align=center;verticalAlign=middle;whiteSpace=wrap;rounded=0;labelBackgroundColor=none;" vertex="1" parent="hdrvY5TLNorQvgxIyoRD-106">
          <mxGeometry x="233.81001639344262" y="474.6380898876404" width="62.90852459016395" height="27.919887640449435" as="geometry" />
        </mxCell>
        <mxCell id="hdrvY5TLNorQvgxIyoRD-57" value="NO" style="text;html=1;align=center;verticalAlign=middle;whiteSpace=wrap;rounded=0;labelBackgroundColor=none;" vertex="1" parent="hdrvY5TLNorQvgxIyoRD-106">
          <mxGeometry x="314.5426229508197" y="437.4115730337078" width="62.90852459016395" height="27.919887640449435" as="geometry" />
        </mxCell>
        <mxCell id="hdrvY5TLNorQvgxIyoRD-58" value="A" style="ellipse;whiteSpace=wrap;html=1;aspect=fixed;labelBackgroundColor=none;rounded=0;" vertex="1" parent="hdrvY5TLNorQvgxIyoRD-106">
          <mxGeometry x="534.7224590163935" y="418.79831460674154" width="46.53314606741573" height="46.53314606741573" as="geometry" />
        </mxCell>
        <mxCell id="hdrvY5TLNorQvgxIyoRD-59" style="edgeStyle=orthogonalEdgeStyle;rounded=0;orthogonalLoop=1;jettySize=auto;html=1;exitX=1;exitY=0.5;exitDx=0;exitDy=0;entryX=0;entryY=0.6;entryDx=0;entryDy=0;entryPerimeter=0;labelBackgroundColor=none;fontColor=default;" edge="1" parent="hdrvY5TLNorQvgxIyoRD-106" source="hdrvY5TLNorQvgxIyoRD-50" target="hdrvY5TLNorQvgxIyoRD-58">
          <mxGeometry relative="1" as="geometry" />
        </mxCell>
        <mxCell id="hdrvY5TLNorQvgxIyoRD-85" value="" style="rounded=0;orthogonalLoop=1;jettySize=auto;html=1;labelBackgroundColor=none;fontColor=default;" edge="1" parent="hdrvY5TLNorQvgxIyoRD-106" target="hdrvY5TLNorQvgxIyoRD-87">
          <mxGeometry relative="1" as="geometry">
            <mxPoint x="288.330737704918" y="670.0773033707864" as="sourcePoint" />
          </mxGeometry>
        </mxCell>
        <mxCell id="hdrvY5TLNorQvgxIyoRD-86" value="" style="edgeStyle=orthogonalEdgeStyle;rounded=0;orthogonalLoop=1;jettySize=auto;html=1;labelBackgroundColor=none;fontColor=default;" edge="1" parent="hdrvY5TLNorQvgxIyoRD-106" source="hdrvY5TLNorQvgxIyoRD-87" target="hdrvY5TLNorQvgxIyoRD-88">
          <mxGeometry relative="1" as="geometry" />
        </mxCell>
        <mxCell id="hdrvY5TLNorQvgxIyoRD-87" value="&lt;font style=&quot;font-size: 15px;&quot;&gt;Dashboard&lt;/font&gt;" style="shape=process;whiteSpace=wrap;html=1;backgroundOutline=1;labelBackgroundColor=none;rounded=0;" vertex="1" parent="hdrvY5TLNorQvgxIyoRD-106">
          <mxGeometry x="199.2103278688525" y="651.4640449438201" width="157.27131147540985" height="65.14640449438201" as="geometry" />
        </mxCell>
        <mxCell id="hdrvY5TLNorQvgxIyoRD-88" value="&lt;font style=&quot;font-size: 15px;&quot;&gt;END&lt;/font&gt;" style="ellipse;whiteSpace=wrap;html=1;labelBackgroundColor=none;rounded=0;" vertex="1" parent="hdrvY5TLNorQvgxIyoRD-106">
          <mxGeometry x="246.39172131147544" y="744.5303370786517" width="62.90852459016395" height="37.22651685393257" as="geometry" />
        </mxCell>
      </root>
    </mxGraphModel>
  </diagram>
</mxfile>
